<?xml version="1.0" standalone="no"?>
<!DOCTYPE svg PUBLIC "-//W3C//DTD SVG 20010904//EN"
 "http://www.w3.org/TR/2001/REC-SVG-20010904/DTD/svg10.dtd">
<svg version="1.0" xmlns="http://www.w3.org/2000/svg"
 width="813.000000pt" height="813.000000pt" viewBox="0 0 813.000000 813.000000"
 preserveAspectRatio="xMidYMid meet">
<metadata>
Created by potrace 1.14, written by Peter Selinger 2001-2017
</metadata>
<g transform="translate(0.000000,813.000000) scale(0.100000,-0.100000)"
fill="#000000" stroke="none">
<path d="M3058 6849 c-102 -14 -237 -45 -319 -75 -257 -91 -402 -263 -359
-424 18 -68 44 -98 76 -92 19 3 25 1 20 -7 -4 -6 -12 -9 -17 -6 -5 4 -9 1 -9
-6 0 -7 10 -9 25 -7 14 3 25 1 25 -3 0 -5 8 -6 18 -2 14 5 14 3 -3 -11 -17
-15 -17 -17 -2 -12 9 3 25 2 35 -1 14 -6 13 -8 -7 -13 -33 -7 -40 -30 -9 -29
22 0 22 1 3 9 l-20 9 20 0 c21 0 67 -17 50 -19 -5 0 1 -8 15 -16 24 -14 24
-15 2 -11 -12 3 -20 1 -16 -4 8 -13 48 -11 62 3 9 9 12 7 12 -9 0 -12 -8 -24
-17 -27 -10 -2 -2 -4 17 -3 19 0 35 -3 35 -8 0 -6 -6 -9 -12 -9 -7 1 -13 -4
-13 -12 0 -11 6 -11 27 -3 18 7 30 6 37 -1 8 -8 4 -12 -12 -16 -33 -9 -28 -17
31 -43 43 -21 181 -71 192 -71 5 0 -5 52 -12 63 -3 5 0 8 8 5 8 -2 19 -20 25
-38 7 -21 13 -28 16 -19 3 8 1 22 -4 32 -9 18 6 25 17 7 9 -15 25 -12 25 5 0
8 4 15 10 15 5 0 7 -6 4 -14 -5 -13 24 -31 34 -21 3 3 0 5 -6 5 -7 0 -12 5
-12 10 0 6 7 10 16 10 12 0 14 3 6 13 -8 9 21 6 101 -10 61 -12 144 -23 184
-24 l73 -2 -5 -26 c-2 -15 2 -65 9 -111 7 -47 11 -92 9 -100 -4 -13 -4 -13 6
0 9 12 11 13 11 1 0 -8 2 -12 5 -9 3 3 1 34 -4 69 -6 35 -12 114 -15 174 -2
61 -1 85 2 55 l7 -55 85 3 c119 4 242 26 351 63 92 31 205 95 242 137 11 12
25 18 35 15 11 -5 13 -3 7 8 -6 11 -5 12 6 2 7 -7 18 -13 24 -13 5 0 3 5 -5
10 -13 8 -12 10 4 10 20 0 20 0 0 15 -18 14 -17 15 7 6 31 -11 44 -4 27 16 -9
11 -7 12 7 7 13 -5 16 -4 11 4 -5 8 1 12 16 13 23 1 23 1 -2 8 -24 7 -24 8 10
15 29 6 32 9 16 15 -18 7 -18 8 -2 14 14 6 16 10 7 21 -9 11 -9 15 1 19 7 2 1
8 -14 12 -16 4 -28 11 -28 15 0 4 12 6 28 3 23 -3 24 -2 7 6 -19 9 -18 10 5
10 14 1 32 6 40 12 11 8 6 9 -22 5 -21 -2 -40 -2 -42 2 -4 7 18 11 71 15 21 2
21 3 5 32 -25 44 -129 144 -197 190 -120 79 -293 139 -520 180 -106 20 -475
29 -577 14z m117 -59 c-3 -5 -11 -10 -16 -10 -6 0 -7 5 -4 10 3 6 11 10 16 10
6 0 7 -4 4 -10z m-50 -10 c3 -6 -1 -7 -9 -4 -18 7 -21 14 -7 14 6 0 13 -4 16
-10z m125 0 c8 -5 11 -10 5 -10 -5 0 -17 5 -25 10 -8 5 -10 10 -5 10 6 0 17
-5 25 -10z m331 -4 c-9 -10 -8 -16 4 -26 9 -7 19 -10 22 -6 4 4 1 11 -7 16
-13 9 -13 10 0 11 8 0 23 2 33 4 9 2 15 -1 11 -6 -3 -5 -10 -7 -15 -3 -6 3 -5
-3 2 -14 7 -12 18 -18 23 -15 6 4 5 8 -3 11 -11 4 -11 6 0 12 8 5 18 2 27 -8
7 -9 11 -11 7 -4 -5 9 1 11 22 8 64 -12 83 -18 79 -25 -3 -4 9 -5 26 -3 20 3
29 1 24 -6 -4 -6 6 -9 24 -8 17 1 36 -4 42 -11 6 -7 16 -13 23 -13 7 0 26 -7
41 -15 16 -8 42 -15 57 -15 16 0 26 -4 22 -10 -3 -5 3 -10 14 -10 11 0 24 -6
28 -14 4 -8 17 -16 28 -18 11 -2 19 -10 17 -16 -3 -15 13 -15 41 0 20 10 21
10 8 -5 -11 -14 -11 -17 0 -17 11 0 11 -2 -1 -10 -13 -8 -13 -10 2 -10 9 0 20
5 23 10 3 6 14 10 23 9 11 0 12 -2 4 -6 -7 -2 -17 -14 -23 -24 -10 -19 -8 -20
28 -15 l38 6 -40 -13 c-22 -7 -34 -15 -26 -18 7 -3 -6 -5 -29 -6 -23 -1 -45
-5 -49 -8 -3 -4 4 -24 17 -45 27 -48 28 -60 1 -60 -11 0 -18 4 -15 9 13 20
-22 17 -42 -4 -23 -24 -31 -62 -10 -49 6 4 8 3 4 -4 -16 -26 -221 -109 -283
-114 -7 -1 -13 -6 -13 -11 0 -5 -6 -7 -14 -4 -8 3 -37 -14 -66 -39 -29 -25
-59 -43 -66 -40 -8 3 -14 1 -14 -5 0 -5 -6 -9 -12 -8 -7 1 -22 -2 -32 -6 -19
-8 -19 -9 0 -17 15 -7 14 -7 -6 -3 -14 2 -35 5 -46 5 -15 0 -24 8 -28 26 -6
22 -1 32 28 59 20 18 36 37 36 42 0 13 -54 63 -67 63 -22 0 -37 87 -23 125 5
14 12 36 14 48 3 12 9 36 15 54 5 17 7 34 4 36 -2 3 6 8 19 12 63 18 79 28 73
46 -4 13 0 21 11 26 16 6 16 7 -2 14 -18 7 -18 8 0 8 15 1 16 4 6 16 -10 13
-9 15 11 16 l24 0 -25 11 c-14 6 -49 13 -79 17 -63 7 -76 24 -31 40 17 6 29
15 26 20 -4 5 2 12 11 14 32 8 36 7 24 -7z m-244 -22 c27 -7 21 -24 -9 -24
-18 0 -19 -4 -14 -42 3 -24 10 -61 16 -83 6 -22 12 -46 12 -52 1 -7 4 -13 8
-13 10 0 31 -75 22 -77 -4 -2 -6 -37 -4 -79 3 -53 0 -74 -7 -69 -6 3 -14 -1
-17 -9 -3 -9 -12 -16 -19 -16 -8 0 -16 -4 -20 -9 -3 -6 6 -8 22 -5 46 9 56 8
118 -5 34 -7 72 -21 84 -31 23 -17 23 -18 7 -41 -12 -18 -16 -20 -16 -7 0 9
-4 20 -10 23 -6 4 -7 -1 -3 -11 4 -12 3 -15 -6 -10 -7 5 -10 15 -7 23 14 36
-62 57 -96 26 -10 -9 -28 -21 -41 -28 -12 -6 -21 -18 -19 -25 11 -45 3 -93
-19 -116 -21 -23 -46 -34 -35 -15 8 12 -89 35 -105 25 -8 -4 -9 -3 -5 4 4 7 5
12 2 12 -2 0 -13 3 -23 6 -13 4 -14 3 -5 -3 9 -7 1 -13 -28 -23 -33 -11 -50
-11 -86 -2 -53 14 -87 15 -79 3 3 -6 -6 -6 -25 -1 -16 5 -30 7 -30 4 0 -8 -63
28 -112 64 -26 20 -48 42 -48 49 0 7 -4 13 -10 13 -5 0 -10 7 -10 16 0 11 -6
14 -21 9 -16 -5 -20 -3 -17 6 3 8 14 13 24 12 10 -1 13 0 6 3 -6 3 -9 11 -5
17 3 7 -3 4 -14 -6 -17 -14 -22 -15 -31 -4 -42 50 -55 162 -26 224 39 81 160
165 304 211 135 43 339 71 397 56z m213 -174 c0 -5 -8 -10 -17 -10 -15 0 -16
2 -3 10 19 12 20 12 20 0z m-135 -70 c3 -5 1 -10 -4 -10 -6 0 -11 5 -11 10 0
6 2 10 4 10 3 0 8 -4 11 -10z m842 -26 c-3 -3 -12 -4 -19 -1 -8 3 -5 6 6 6 11
1 17 -2 13 -5z m-847 -8 c0 -3 -4 -8 -10 -11 -5 -3 -10 -1 -10 4 0 6 5 11 10
11 6 0 10 -2 10 -4z m870 -10 c0 -2 -7 -7 -16 -10 -8 -3 -12 -2 -9 4 6 10 25
14 25 6z m-823 -73 c-2 -16 -4 -5 -4 22 0 28 2 40 4 28 2 -13 2 -35 0 -50z
m-50 25 c-3 -7 -5 -2 -5 12 0 14 2 19 5 13 2 -7 2 -19 0 -25z m-830 -174 c-3
-3 -12 -4 -19 -1 -8 3 -5 6 6 6 11 1 17 -2 13 -5z m16 -19 c-3 -9 -8 -14 -10
-11 -3 3 -2 9 2 15 9 16 15 13 8 -4z m-26 -1 c-3 -3 -12 -4 -19 -1 -8 3 -5 6
6 6 11 1 17 -2 13 -5z m1203 -27 c0 -2 -12 -14 -27 -28 l-28 -24 24 28 c23 25
31 32 31 24z m-55 -68 c-4 -5 -12 -9 -18 -8 -9 0 -8 2 1 6 6 2 9 10 6 15 -4 7
-2 8 5 4 6 -4 9 -12 6 -17z m-1025 1 c0 -5 -4 -10 -10 -10 -5 0 -10 5 -10 10
0 6 5 10 10 10 6 0 10 -4 10 -10z m67 -62 c-3 -8 -6 -5 -6 6 -1 11 2 17 5 13
3 -3 4 -12 1 -19z m790 6 c-3 -3 -12 -4 -19 -1 -8 3 -5 6 6 6 11 1 17 -2 13
-5z m-737 -24 c0 -5 -5 -10 -11 -10 -5 0 -7 5 -4 10 3 6 8 10 11 10 2 0 4 -4
4 -10z m-40 -24 c-6 -8 -18 -12 -26 -9 -19 7 -7 23 18 23 17 0 18 -3 8 -14z
m80 4 c0 -5 -2 -10 -4 -10 -3 0 -8 5 -11 10 -3 6 -1 10 4 10 6 0 11 -4 11 -10z
m-42 -24 c-7 -8 -16 -12 -21 -9 -11 7 2 23 19 23 12 0 12 -2 2 -14z m105 -20
c10 -31 6 -39 -16 -30 -12 4 -14 11 -7 23 6 12 5 22 -3 31 -9 10 -9 12 2 8 8
-2 19 -17 24 -32z m-45 -2 c-9 -9 -21 -13 -28 -9 -14 9 5 25 30 25 12 0 12 -3
-2 -16z"/>
<path d="M3660 6646 c0 -2 7 -7 16 -10 8 -3 12 -2 9 4 -6 10 -25 14 -25 6z"/>
<path d="M3703 6603 c-7 -2 -13 -11 -13 -20 0 -12 2 -12 16 1 17 18 39 22 29
6 -3 -5 -2 -10 4 -10 17 0 21 18 5 24 -18 7 -23 7 -41 -1z"/>
<path d="M3790 6600 c8 -5 20 -10 25 -10 6 0 3 5 -5 10 -8 5 -19 10 -25 10 -5
0 -3 -5 5 -10z"/>
<path d="M4065 6590 c-14 -7 -8 -8 20 -3 22 3 42 7 44 9 9 8 -45 2 -64 -6z"/>
<path d="M4095 6570 c-16 -7 -17 -9 -3 -9 9 -1 20 4 23 9 7 11 7 11 -20 0z"/>
<path d="M3558 6553 c-11 -3 -18 -14 -18 -28 0 -17 4 -23 14 -19 8 3 13 11 10
18 -3 7 5 18 18 24 23 11 9 14 -24 5z"/>
<path d="M4113 6523 c0 -20 3 -22 30 -17 42 7 51 18 11 12 -23 -3 -31 -1 -27
8 3 7 12 15 21 17 10 3 5 4 -9 4 -21 -1 -26 -6 -26 -24z"/>
<path d="M3522 6481 c-10 -6 -9 -10 7 -14 14 -3 21 0 21 9 0 16 -9 18 -28 5z"/>
<path d="M4040 6349 c0 -5 5 -7 10 -4 6 3 10 8 10 11 0 2 -4 4 -10 4 -5 0 -10
-5 -10 -11z"/>
<path d="M3258 6713 c6 -2 18 -2 25 0 6 3 1 5 -13 5 -14 0 -19 -2 -12 -5z"/>
<path d="M3002 6681 c-92 -27 -202 -84 -242 -127 l-35 -38 42 36 c68 56 242
132 261 114 3 -3 -2 -6 -12 -6 -9 0 -15 -4 -12 -9 4 -5 -4 -7 -16 -3 -16 4
-19 2 -13 -8 5 -9 4 -11 -4 -6 -15 9 -53 -3 -46 -15 3 -5 -2 -6 -11 -2 -13 5
-15 3 -9 -7 6 -10 4 -12 -7 -8 -19 8 -41 -6 -44 -26 -1 -9 2 -14 7 -10 5 3 7
10 3 15 -3 6 0 9 7 8 8 -2 31 3 53 10 29 10 35 16 25 23 -11 7 -9 8 5 4 21 -7
98 13 91 25 -3 4 4 5 15 2 15 -4 -1 -14 -60 -38 -88 -36 -93 -39 -96 -60 -2
-11 2 -12 16 -5 21 11 29 4 25 -21 -3 -15 3 -14 45 5 28 12 43 24 36 28 -16
11 -28 10 -21 -2 9 -15 -11 -12 -24 4 -19 23 18 25 54 4 33 -20 49 -23 40 -8
-8 13 -3 13 36 -5 29 -14 30 -15 7 -11 -34 8 -66 -3 -46 -15 7 -5 18 -9 23 -9
6 0 3 5 -5 10 -9 6 -10 10 -3 10 20 0 43 -12 38 -20 -3 -5 4 -6 16 -3 16 4 17
8 7 14 -7 5 -8 9 -3 9 6 0 -1 9 -15 20 -15 13 -18 18 -7 14 15 -5 16 -3 7 20
-5 14 -7 26 -4 26 3 0 -2 7 -11 16 -9 9 -14 23 -10 31 4 13 -2 14 -32 9 l-38
-5 35 14 c51 20 8 17 -68 -4z m-40 -98 c-9 -4 -7 -10 8 -23 18 -16 19 -18 4
-24 -9 -4 -19 -4 -22 -1 -3 3 0 5 7 5 9 0 8 4 -3 15 -8 8 -23 12 -33 9 -10 -3
-7 2 7 10 14 8 30 15 35 15 6 0 4 -3 -3 -6z"/>
<path d="M3220 6480 c8 -5 26 -9 40 -9 l25 1 -25 8 c-14 4 -32 8 -40 9 -13 1
-13 0 0 -9z"/>
<path d="M2646 6428 c4 -13 10 -25 14 -28 4 -3 10 -12 13 -20 4 -12 6 -11 6 3
1 14 5 16 20 7 14 -7 21 -6 24 3 4 9 6 9 6 0 1 -18 21 -16 21 2 0 8 -1 15 -2
15 -2 0 -27 9 -56 20 l-54 20 8 -22z"/>
<path d="M2761 6384 c0 -11 3 -14 6 -6 3 7 2 16 -1 19 -3 4 -6 -2 -5 -13z"/>
<path d="M3110 6254 c0 -13 -8 -15 -50 -10 -27 3 -50 3 -50 -1 0 -10 -52 -9
-68 1 -14 8 -15 -3 -3 -22 10 -16 62 -24 76 -12 6 5 24 7 42 6 17 -1 29 2 27
6 -3 5 5 7 19 4 21 -4 23 -1 19 20 -5 27 -12 32 -12 8z"/>
<path d="M3266 6245 c-3 -8 -1 -17 3 -20 5 -3 11 2 15 10 3 8 1 17 -3 20 -5 3
-11 -2 -15 -10z"/>
<path d="M2886 6242 c-3 -6 -1 -14 5 -17 15 -10 25 3 12 16 -7 7 -13 7 -17 1z"/>
<path d="M3166 6233 c-6 -14 -5 -15 5 -6 7 7 10 15 7 18 -3 3 -9 -2 -12 -12z"/>
<path d="M3054 6152 c3 -6 0 -12 -6 -15 -7 -2 4 -12 25 -23 25 -12 33 -20 25
-26 -7 -4 -8 -8 -3 -8 6 0 16 4 23 9 10 6 5 12 -18 21 -37 16 -53 35 -19 25
28 -9 24 -3 -10 15 -13 6 -21 7 -17 2z"/>
<path d="M5467 6252 c-13 -3 -17 -11 -15 -27 2 -14 -4 -30 -14 -37 -22 -16
-14 -58 11 -58 14 0 14 -2 1 -10 -8 -5 -13 -10 -10 -10 58 -9 90 -8 90 1 0 7
8 18 18 25 16 13 16 13 -2 14 -19 0 -19 1 -2 13 29 21 16 52 -21 51 -26 -2
-32 2 -35 20 -2 15 -9 20 -21 18z"/>
<path d="M3018 5953 c6 -2 12 -10 12 -18 0 -7 7 -19 17 -26 15 -13 15 -12 4 9
-6 12 -8 22 -4 22 4 0 1 5 -7 10 -8 5 -19 9 -25 9 -5 0 -4 -3 3 -6z"/>
<path d="M3080 5921 c0 -25 4 -31 22 -31 20 0 20 1 5 18 -10 10 -14 21 -11 24
3 3 1 9 -5 13 -7 4 -11 -5 -11 -24z"/>
<path d="M5534 5929 c-5 -8 -3 -9 6 -4 10 6 12 4 7 -9 -7 -17 15 -50 26 -40 3
3 3 -3 0 -14 -2 -11 1 -23 9 -27 7 -5 10 -5 6 0 -4 4 0 14 10 21 14 11 15 15
3 23 -11 7 -11 9 0 14 8 3 2 6 -13 6 -17 1 -28 7 -28 15 0 20 -17 29 -26 15z"/>
<path d="M3140 5890 c0 -5 7 -10 16 -10 8 0 12 5 9 10 -3 6 -10 10 -16 10 -5
0 -9 -4 -9 -10z"/>
<path d="M3195 5890 c-3 -6 1 -13 10 -16 21 -9 26 -2 10 13 -9 8 -16 9 -20 3z"/>
<path d="M3243 5887 c1 -7 9 -15 17 -19 22 -10 112 -10 106 0 -3 5 -25 7 -50
6 -26 -2 -46 1 -46 5 0 5 -7 11 -15 15 -8 3 -14 0 -12 -7z"/>
<path d="M5626 5857 c4 -12 2 -17 -7 -15 -18 4 -19 -31 -2 -57 16 -24 17 -49
1 -39 -7 4 -8 3 -4 -5 4 -6 12 -9 17 -5 6 3 20 -2 32 -12 l22 -19 -20 25 c-21
26 -45 66 -45 75 0 3 5 4 12 3 18 -4 20 25 3 47 -13 17 -14 17 -9 2z"/>
<path d="M5550 5822 c0 -4 9 -15 20 -25 23 -19 26 -11 6 16 -14 18 -26 22 -26
9z"/>
<path d="M3548 5769 c-10 -5 -18 -19 -18 -29 0 -12 -7 -20 -16 -20 -14 0 -14
-3 -4 -15 9 -10 9 -15 1 -15 -6 0 -11 -4 -11 -10 0 -5 23 -10 50 -10 l51 0 -5
38 c-5 43 -15 72 -25 72 -3 0 -14 -5 -23 -11z m12 -63 c0 -2 -7 -6 -15 -10 -8
-3 -15 -1 -15 4 0 6 7 10 15 10 8 0 15 -2 15 -4z"/>
<path d="M3415 5709 c10 -35 23 -45 18 -15 -3 15 -10 29 -15 32 -6 4 -7 -2 -3
-17z"/>
<path d="M3468 5680 c-3 -20 0 -30 9 -30 7 0 13 11 13 24 0 36 -17 41 -22 6z"/>
<path d="M5655 5690 c3 -5 8 -10 11 -10 2 0 4 5 4 10 0 6 -5 10 -11 10 -5 0
-7 -4 -4 -10z"/>
<path d="M3550 5646 c0 -18 27 -39 40 -31 5 3 10 15 10 26 0 14 -7 19 -25 19
-15 0 -25 -6 -25 -14z"/>
<path d="M3475 5585 c-12 -38 -12 -43 -15 -85 -1 -29 -3 -32 -10 -15 -7 16 -9
11 -9 -22 -1 -23 3 -44 8 -47 4 -3 11 -19 14 -36 4 -18 13 -30 22 -30 16 0 19
73 6 200 -6 59 -7 62 -16 35z"/>
<path d="M5027 5563 c-14 -13 -7 -53 11 -62 25 -13 52 10 52 44 0 24 -2 26
-17 14 -13 -11 -17 -11 -20 -1 -5 13 -16 16 -26 5z"/>
<path d="M4590 5378 c0 -4 5 -8 10 -8 6 0 10 -5 10 -11 0 -6 -7 -8 -17 -5 -24
10 37 -46 73 -65 44 -25 134 -48 227 -60 107 -13 114 -15 121 -44 4 -14 1 -99
-5 -190 -6 -92 -8 -169 -5 -172 17 -17 34 27 38 94 2 40 0 67 -4 60 -15 -24
-18 3 -12 101 5 74 11 102 20 102 7 0 18 9 24 20 9 16 21 20 69 20 38 0 63 5
70 14 8 9 39 15 90 17 62 3 89 10 136 34 32 17 65 41 73 54 l16 23 -49 -25
c-101 -50 -173 -62 -380 -60 -171 1 -200 3 -290 27 -55 14 -126 39 -157 54
-32 16 -58 25 -58 20z"/>
<path d="M5990 5350 c0 -5 5 -10 10 -10 6 0 10 5 10 10 0 6 -4 10 -10 10 -5 0
-10 -4 -10 -10z"/>
<path d="M5976 5308 c-5 -21 -6 -22 -19 -5 -12 18 -13 18 -14 0 -1 -10 9 -23
21 -29 20 -9 23 -8 19 6 -3 10 2 20 12 24 9 3 13 10 10 16 -10 17 -22 11 -29
-12z"/>
<path d="M3407 5293 c-3 -10 -8 -44 -12 -75 l-6 -57 33 -9 c29 -7 34 -14 44
-58 5 -27 8 -82 6 -122 -3 -58 -8 -75 -23 -83 -13 -6 -19 -6 -19 1 0 5 5 10
10 10 6 0 10 12 10 28 l-1 27 -18 -34 c-14 -26 -16 -38 -7 -47 7 -7 13 -8 17
-2 4 6 15 8 25 6 29 -5 32 -72 5 -95 -12 -10 -21 -26 -21 -36 0 -13 -5 -17
-16 -13 -9 3 -17 6 -20 6 -2 0 -1 8 3 18 3 9 -9 1 -26 -18 l-32 -35 29 -3 c17
-2 47 4 67 12 46 20 55 20 55 2 0 -31 34 -160 38 -142 3 13 -76 709 -82 723
-1 1 -13 4 -28 8 -20 5 -27 3 -31 -12z"/>
<path d="M3520 5271 c0 -11 5 -23 10 -26 6 -4 10 5 10 19 0 14 -4 26 -10 26
-5 0 -10 -9 -10 -19z"/>
<path d="M3755 5235 c-11 -2 -66 -9 -123 -15 l-103 -12 7 -47 c4 -25 21 -167
38 -316 l32 -270 44 -1 c27 -1 47 -7 55 -18 29 -38 30 -9 5 106 -16 77 -31
123 -40 126 -8 3 10 11 39 18 67 18 191 69 233 98 53 35 78 81 78 143 0 92
-42 152 -119 172 -45 12 -120 20 -146 16z"/>
<path d="M5987 5172 c-19 -76 -28 -126 -30 -162 -1 -14 -8 -29 -14 -33 -18
-11 -16 -75 2 -93 20 -20 20 -19 40 144 15 124 26 167 49 183 5 4 0 12 -11 17
-18 10 -21 5 -36 -56z"/>
<path d="M5952 5205 c0 -16 2 -22 5 -12 2 9 2 23 0 30 -3 6 -5 -1 -5 -18z"/>
<path d="M3498 5183 c7 -3 16 -2 19 1 4 3 -2 6 -13 5 -11 0 -14 -3 -6 -6z"/>
<path d="M3345 5090 l-50 -51 -1 -89 -1 -88 24 9 c30 11 33 11 33 -1 0 -5 -9
-10 -21 -10 -11 0 -17 -4 -14 -10 3 -5 15 -10 25 -10 25 0 59 75 70 153 5 32
14 65 20 72 6 8 10 26 8 42 -5 46 -36 41 -93 -17z"/>
<path d="M2290 5065 c-7 -18 -15 -25 -25 -21 -19 7 -39 -39 -29 -63 4 -9 8
-20 8 -26 1 -11 45 -22 98 -24 41 -1 58 17 58 64 0 18 -6 29 -19 32 -11 3 -21
15 -23 27 -2 11 -10 21 -18 21 -8 0 -21 4 -28 8 -8 6 -15 -1 -22 -18z"/>
<path d="M3452 5060 c0 -14 2 -19 5 -12 2 6 2 18 0 25 -3 6 -5 1 -5 -13z"/>
<path d="M3452 5000 c0 -14 2 -19 5 -12 2 6 2 18 0 25 -3 6 -5 1 -5 -13z"/>
<path d="M6242 4948 c2 -6 10 -14 16 -16 7 -2 10 2 6 12 -7 18 -28 22 -22 4z"/>
<path d="M3386 4845 c-3 -8 -1 -15 4 -15 13 0 22 18 11 24 -5 3 -11 -1 -15 -9z"/>
<path d="M3540 4849 c0 -5 5 -7 10 -4 6 3 10 8 10 11 0 2 -4 4 -10 4 -5 0 -10
-5 -10 -11z"/>
<path d="M5133 4843 c9 -2 23 -2 30 0 6 3 -1 5 -18 5 -16 0 -22 -2 -12 -5z"/>
<path d="M5491 4824 c-51 -14 -100 -31 -108 -39 -8 -8 -21 -15 -29 -15 -8 0
-14 -4 -14 -10 0 -15 69 -12 128 5 40 12 52 20 52 35 0 13 7 20 20 20 11 0 20
-4 20 -10 0 -5 9 -10 20 -10 29 0 70 21 70 37 0 19 -50 15 -159 -13z"/>
<path d="M5068 4833 c6 -2 18 -2 25 0 6 3 1 5 -13 5 -14 0 -19 -2 -12 -5z"/>
<path d="M5378 4833 c7 -3 16 -2 19 1 4 3 -2 6 -13 5 -11 0 -14 -3 -6 -6z"/>
<path d="M5950 4800 c-9 -16 -8 -20 5 -20 8 0 15 9 15 20 0 11 -2 20 -5 20 -2
0 -9 -9 -15 -20z"/>
<path d="M3300 4794 c0 -11 5 -26 10 -34 8 -13 11 -12 24 5 18 23 20 35 7 35
-5 0 -16 3 -25 6 -11 4 -16 0 -16 -12z"/>
<path d="M5852 4798 c-7 -7 -17 -14 -22 -14 -6 -1 -14 -2 -20 -3 -5 0 -10 -9
-10 -18 1 -17 1 -17 11 0 18 32 40 2 33 -44 -8 -46 18 -88 42 -68 9 8 15 -3
25 -48 l13 -58 9 67 c5 37 6 76 2 85 -8 18 -11 28 -13 50 -1 7 -13 12 -28 11
-23 -2 -25 -5 -20 -43 5 -36 5 -37 -4 -10 -5 16 -7 47 -3 67 6 41 4 45 -15 26z
m65 -160 c-3 -7 -5 -2 -5 12 0 14 2 19 5 13 2 -7 2 -19 0 -25z"/>
<path d="M5564 4758 c3 -13 6 -26 6 -29 0 -9 61 5 86 19 16 10 14 11 -18 12
-20 0 -40 5 -43 10 -3 6 -13 10 -22 10 -11 0 -14 -6 -9 -22z"/>
<path d="M5246 4755 c-21 -22 0 -48 27 -33 15 8 16 12 5 26 -7 9 -13 18 -14
20 -1 2 -9 -4 -18 -13z"/>
<path d="M5510 4745 c-27 -29 -62 -37 -39 -9 12 15 10 16 -21 9 -19 -4 -43
-16 -52 -27 -9 -11 -22 -17 -27 -13 -6 3 -11 2 -11 -3 0 -6 -11 -13 -25 -16
-14 -4 -25 -14 -25 -22 0 -11 5 -14 16 -10 9 4 50 13 91 22 41 8 81 18 89 21
7 3 14 3 14 0 0 -2 -38 -16 -84 -31 -67 -21 -84 -30 -81 -44 2 -9 4 -20 4 -24
1 -4 11 -9 24 -11 19 -4 19 -4 -5 -6 -16 0 -31 6 -37 17 -9 15 -10 15 -11 -5
0 -21 5 -23 45 -23 47 0 56 -11 30 -36 -8 -9 -15 -21 -14 -27 0 -9 2 -8 6 0 3
10 9 9 21 -4 15 -15 17 -14 22 8 10 42 35 29 36 -18 2 -41 -10 -52 -28 -28 -5
6 -12 4 -18 -5 -6 -10 -6 -16 0 -18 6 -2 10 -10 10 -18 0 -8 5 -14 11 -14 5 0
7 -5 4 -10 -4 -6 -11 -8 -16 -5 -5 4 -8 -4 -6 -17 2 -19 -2 -22 -22 -20 -17 3
-21 0 -16 -10 6 -10 5 -10 -4 -2 -10 9 -9 17 4 37 12 20 13 26 3 30 -10 3 -9
9 5 24 21 24 22 37 2 29 -10 -4 -20 3 -27 20 -9 19 -17 24 -32 19 -65 -18 -73
-17 -79 6 -4 14 -1 27 6 31 19 12 25 10 32 -12 8 -24 26 -17 21 8 -2 9 -11 34
-20 55 -15 33 -19 37 -44 31 -55 -12 -62 -16 -63 -32 0 -14 -2 -13 -9 3 -7 15
-9 10 -8 -23 2 -35 -2 -46 -17 -54 -17 -9 -18 -8 -7 3 6 7 12 26 12 43 l0 29
-26 -24 c-14 -13 -39 -43 -55 -67 -24 -35 -27 -47 -18 -63 6 -12 8 -23 5 -26
-3 -3 -48 2 -101 11 -53 9 -100 14 -105 11 -11 -7 -3 -87 11 -96 6 -4 9 -14 6
-23 -11 -28 -33 3 -30 40 1 19 -2 36 -7 39 -6 4 -10 -5 -10 -19 0 -14 -4 -27
-10 -31 -5 -3 -7 -13 -4 -23 5 -14 4 -14 -4 -3 -6 8 -8 20 -5 28 3 7 -2 13
-12 13 -9 0 -13 5 -10 10 3 6 0 10 -7 10 -10 0 -9 3 2 9 8 6 17 8 20 6 3 -2 7
7 8 21 1 18 -3 24 -18 24 -11 0 -20 5 -20 11 0 6 -7 9 -15 5 -8 -3 -15 -1 -15
5 0 5 6 12 14 15 15 6 10 44 -6 44 -6 0 -8 7 -5 14 4 10 1 13 -9 9 -17 -6 -18
-15 -4 -29 7 -7 5 -17 -5 -30 -13 -17 -14 -17 -15 -1 0 9 -7 17 -16 17 -14 0
-14 -1 0 -16 16 -16 22 -64 8 -64 -4 0 -14 6 -21 13 -11 10 -13 7 -9 -15 3
-16 1 -28 -3 -28 -5 0 -9 16 -9 35 0 32 -2 35 -30 35 -16 0 -31 5 -31 10 -1 6
-2 14 -3 19 -3 22 -17 23 -23 2 -3 -13 -11 -20 -19 -17 -20 8 -24 -6 -10 -33
12 -21 14 -22 20 -5 6 16 8 16 16 4 9 -13 10 -13 10 0 1 31 30 -23 30 -56 0
-27 -3 -31 -20 -27 -12 3 -20 0 -20 -6 0 -7 -4 -9 -10 -6 -5 3 -10 1 -10 -5 0
-24 -20 3 -21 28 -1 24 -3 23 -9 -8 l-7 -35 -4 40 c-1 22 -3 51 -4 65 -1 26
-28 35 -53 17 -8 -7 -7 0 3 19 l15 29 -43 6 c-35 5 -37 6 -12 8 17 1 38 6 49
10 27 11 -96 11 -192 1 -134 -15 -128 2 7 21 116 16 168 35 148 56 -19 18
-366 -15 -393 -38 -21 -17 -17 -38 9 -49 20 -8 19 -9 -10 -9 -26 -1 -30 -4
-26 -21 3 -11 12 -20 19 -20 11 0 8 -9 -8 -35 -13 -19 -29 -35 -35 -35 -7 0
-13 -9 -13 -21 0 -11 4 -18 9 -14 5 3 12 -9 14 -27 3 -29 4 -28 5 10 1 23 7
42 12 42 12 0 2 -80 -11 -94 -4 -5 -12 7 -18 25 l-10 34 2 -40 c1 -30 -2 -41
-15 -43 -20 -4 -33 18 -42 71 -6 30 -11 37 -31 37 -39 0 -55 11 -55 36 0 13
-4 24 -10 24 -20 0 -10 19 13 23 13 3 8 5 -15 6 -30 1 -38 -3 -39 -16 0 -15
-2 -14 -9 3 -6 16 -15 19 -44 16 -20 -2 -36 -8 -36 -14 0 -5 4 -7 9 -4 5 3 11
-1 15 -9 6 -17 -19 -21 -29 -4 -4 6 -22 8 -46 4 -26 -5 -39 -3 -39 5 0 6 6 10
13 9 26 -3 37 2 37 17 0 13 -8 15 -42 10 -42 -5 -42 -5 -10 6 17 6 32 15 32
19 0 5 8 9 17 9 12 0 14 3 6 11 -6 6 -17 8 -24 3 -7 -4 -35 -9 -62 -10 -74 -4
-127 -15 -127 -26 0 -5 10 -8 23 -7 25 4 47 -7 47 -23 0 -7 -5 -7 -14 1 -11 9
-15 8 -20 -5 -9 -22 -8 -26 5 -18 7 4 10 1 7 -6 -8 -25 -27 -22 -34 6 -6 23
-9 25 -18 12 -9 -12 -14 -13 -23 -3 -9 10 -9 16 0 25 10 10 6 11 -18 5 -16 -3
-35 -11 -42 -17 -18 -14 -5 -30 18 -23 10 4 19 3 19 -2 0 -15 58 -34 96 -31
35 3 39 1 46 -27 l7 -30 -3 33 c-1 17 1 32 6 32 20 0 23 -2 20 -16 -2 -9 6
-18 18 -21 16 -4 18 -8 9 -19 -8 -10 -8 -14 0 -14 6 0 10 -16 10 -37 -1 -27
-3 -31 -6 -14 l-5 25 -20 -25 -19 -24 16 33 c16 33 16 33 -5 22 -19 -10 -21
-17 -15 -47 4 -25 2 -38 -7 -44 -9 -6 -5 -9 13 -9 64 0 89 -33 89 -114 0 -45
-9 -53 -67 -61 -29 -4 -52 -10 -52 -13 3 -18 -2 -32 -11 -32 -6 0 -9 3 -9 8 5
29 -4 32 -138 34 l-137 3 -18 125 c-9 69 -17 140 -18 158 0 32 0 32 51 32 30
0 48 4 44 10 -3 5 0 7 7 5 19 -7 91 19 96 34 3 9 -7 12 -34 10 -22 -1 -50 3
-63 11 -22 11 -27 10 -48 -14 l-23 -27 0 26 c0 26 0 26 -62 19 -66 -7 -89 -22
-81 -54 4 -15 1 -18 -16 -13 -26 7 -26 11 -3 37 l17 21 -23 -19 c-15 -13 -26
-16 -33 -9 -13 13 -59 4 -59 -12 0 -19 28 -38 48 -33 12 3 23 -2 31 -13 6 -11
17 -19 25 -19 7 0 19 -7 26 -15 7 -9 19 -14 25 -11 9 3 17 -31 29 -117 18
-138 19 -147 8 -130 -6 9 -184 63 -208 63 -7 0 -4 -28 4 -33 4 -2 0 -1 -8 2
-8 3 -42 5 -74 6 l-59 0 -1 -40 c-2 -44 12 -85 23 -67 4 7 12 8 21 2 10 -7 11
-10 3 -10 -17 0 -17 -32 0 -49 6 -8 7 -11 1 -8 -6 4 -19 1 -28 -6 -17 -12 -17
-28 -7 -228 15 -293 17 -267 -21 -271 -26 -2 -34 -8 -36 -26 -4 -28 14 -53 33
-46 20 8 30 -17 11 -28 -22 -13 -20 -28 5 -28 18 0 20 -4 13 -46 -5 -34 -4
-45 5 -40 7 4 9 2 5 -8 -6 -17 15 -61 45 -93 12 -12 21 -30 21 -39 0 -16 -2
-16 -16 2 -15 18 -15 18 -5 -2 6 -12 9 -23 8 -26 -1 -2 5 3 13 12 14 14 20 12
70 -18 30 -19 46 -31 35 -27 -11 4 -37 9 -57 12 -22 3 -35 10 -31 16 3 6 1 7
-5 3 -20 -12 -14 -22 28 -50 47 -31 50 -31 51 -8 0 14 2 13 9 -4 5 -12 20 -24
34 -28 26 -6 26 -8 26 -97 0 -86 -1 -91 -17 -78 -10 8 -22 20 -26 27 -6 8 -18
11 -32 8 -19 -5 -31 3 -62 42 -22 26 -50 63 -63 82 l-24 35 30 -25 c16 -13 46
-40 66 -59 42 -39 85 -54 69 -23 -8 15 -106 105 -150 138 -13 10 -13 14 2 37
9 14 13 29 8 32 -5 3 -12 -4 -16 -15 -9 -29 -26 -25 -65 15 -20 20 -40 33 -48
30 -8 -3 -29 0 -48 7 -26 9 -36 9 -48 -1 -10 -8 -16 -9 -16 -3 0 6 5 12 11 14
14 5 -20 188 -34 188 -4 0 -6 4 -3 9 3 5 -6 64 -20 132 -26 128 -30 162 -33
264 -1 52 -3 58 -15 43 -13 -18 -32 -26 -22 -9 3 5 -1 29 -10 53 -8 25 -37
153 -65 284 -27 131 -52 248 -54 259 -3 11 -8 36 -11 55 -3 19 -7 40 -9 47 -2
6 3 17 11 23 8 7 14 16 14 21 0 14 -38 11 -43 -3 -2 -7 -7 6 -11 29 -5 29 -14
44 -28 48 -29 10 -33 0 -21 -50 5 -24 7 -42 2 -39 -27 16 -26 -73 1 -100 5 -5
10 -17 10 -25 0 -8 6 -22 13 -30 8 -9 35 -117 62 -241 26 -124 52 -233 56
-242 5 -9 11 -36 12 -60 3 -36 7 -43 27 -48 24 -6 24 -6 -9 -18 -28 -10 -32
-9 -28 3 3 7 1 16 -6 18 -9 3 -9 8 1 19 9 11 10 18 2 23 -6 3 -8 11 -5 16 4 5
1 9 -4 9 -16 0 -13 -86 3 -99 8 -7 17 -28 21 -49 4 -20 10 -41 15 -47 4 -5 31
-111 59 -235 28 -123 56 -229 62 -235 5 -5 15 -10 22 -10 27 0 11 -30 -18 -32
-16 -1 -37 -11 -47 -23 -9 -11 -22 -20 -30 -20 -7 0 -29 -40 -50 -93 -20 -50
-51 -126 -69 -169 -30 -71 -31 -77 -16 -93 15 -15 15 -19 2 -46 -9 -17 -11
-29 -5 -29 5 0 10 -5 10 -11 0 -5 -4 -8 -9 -4 -6 3 -15 -4 -21 -15 -6 -11 -17
-20 -24 -20 -18 0 -23 -20 -114 -448 -2 -13 -11 -26 -18 -29 -8 -3 -14 -11
-14 -18 0 -8 -6 -20 -13 -27 -8 -7 -23 -42 -35 -78 l-22 -64 27 -23 c16 -12
32 -22 36 -23 5 0 29 14 53 31 l45 31 -2 96 -1 97 76 192 c58 149 74 199 70
223 -4 16 -4 30 0 30 3 0 61 -27 128 -61 118 -59 122 -60 152 -46 75 36 103
44 133 40 25 -4 34 -1 44 18 17 33 143 208 149 208 3 0 15 -20 27 -43 l21 -44
-54 -81 c-30 -44 -54 -85 -54 -90 0 -5 -4 -11 -9 -13 -20 -7 -262 -392 -256
-407 3 -8 3 -12 -1 -9 -3 4 -18 -16 -33 -45 -14 -29 -29 -53 -33 -55 -15 -7
-8 -59 10 -75 21 -19 45 -21 72 -7 33 18 42 45 29 94 -11 44 -10 46 23 88 19
24 77 105 128 181 51 75 96 137 100 137 4 0 13 -6 19 -14 14 -16 5 -132 -10
-142 -5 -3 -9 -25 -9 -49 0 -35 4 -45 20 -50 50 -16 90 27 70 75 -7 16 -18 31
-26 34 -9 4 -14 22 -14 57 0 44 2 50 17 45 40 -16 272 -168 277 -182 5 -12 14
-15 41 -10 19 4 43 2 54 -3 10 -6 33 -12 50 -13 17 -1 31 -6 31 -10 0 -16 18
-7 52 25 60 56 121 94 126 78 20 -61 188 -375 219 -411 42 -48 62 -98 43 -110
-20 -12 -24 -75 -5 -93 22 -23 78 -22 98 1 23 25 21 69 -3 89 -11 10 -20 23
-20 30 0 6 -6 16 -12 20 -25 15 -61 75 -50 82 6 4 -67 166 -189 416 -189 387
-200 412 -194 453 3 23 9 42 13 42 4 -1 28 -20 55 -45 39 -36 47 -49 47 -79 0
-28 5 -39 23 -47 32 -15 75 4 83 36 7 28 8 27 -175 207 l-103 103 48 8 c170
27 285 70 355 134 l40 36 -3 -79 c-2 -43 -7 -82 -11 -85 -5 -3 3 -19 17 -34
14 -15 26 -36 26 -47 0 -31 40 -101 82 -141 21 -21 41 -51 45 -67 3 -16 11
-31 19 -34 8 -3 14 -11 14 -18 0 -9 -3 -8 -10 2 -6 9 -10 10 -10 3 0 -20 51
-73 84 -87 39 -16 108 -75 101 -86 -3 -5 7 -7 22 -5 25 2 25 2 9 -10 -18 -14
-14 -35 6 -35 5 0 21 9 35 20 l25 20 59 -53 c33 -28 85 -71 116 -95 110 -83
123 -98 109 -118 -7 -11 -16 -31 -20 -47 -5 -23 -3 -29 16 -36 13 -5 27 -5 33
0 20 19 53 7 93 -34 23 -23 42 -48 42 -53 0 -6 9 -19 20 -29 16 -15 18 -21 7
-33 -10 -13 -9 -15 10 -10 16 4 20 2 16 -8 -5 -13 -17 -18 -36 -15 -14 3 3
-18 25 -30 16 -9 19 -8 13 3 -4 7 18 -12 49 -42 31 -30 56 -59 56 -66 0 -6 9
-23 21 -38 15 -20 28 -26 52 -24 45 3 51 18 20 50 -32 33 -29 34 28 8 24 -11
55 -19 69 -19 20 1 21 2 5 6 -11 2 -46 14 -77 26 -52 20 -59 26 -79 71 -12 28
-24 76 -27 108 -2 32 -9 58 -13 58 -5 0 -4 12 1 26 17 44 13 56 -12 43 -22
-12 -22 -11 -6 8 10 11 24 57 33 109 19 109 66 251 106 321 34 62 35 67 9 60
-11 -3 -23 -1 -26 4 -3 5 2 9 10 9 8 0 18 10 21 21 11 33 -38 68 -92 66 -50
-2 -61 7 -42 30 9 10 21 32 28 48 19 45 140 224 185 275 23 25 80 85 129 135
l88 90 -22 17 c-24 20 -44 24 -33 6 4 -7 3 -8 -5 -4 -6 4 -9 11 -6 16 3 5 -3
14 -13 19 -15 8 -23 6 -37 -9 -10 -11 -23 -16 -33 -12 -14 5 -12 7 8 12 35 8
31 29 -10 49 -19 10 -34 23 -32 31 2 10 0 11 -11 2 -8 -7 -17 -9 -20 -6 -10
10 16 44 34 44 18 0 62 -43 54 -53 -3 -4 -2 -5 1 -2 4 2 25 -11 47 -31 23 -19
47 -32 54 -30 7 3 12 0 10 -6 -4 -20 56 -19 78 1 11 10 44 33 73 51 42 25 52
37 49 52 -4 14 -1 18 9 14 10 -4 13 2 12 19 -2 24 -3 24 -20 5 -10 -11 -18
-25 -18 -31 0 -7 -3 -10 -6 -6 -10 10 7 47 27 57 13 8 32 7 60 0 54 -15 73 1
33 26 -32 20 -44 34 -44 49 0 6 4 4 8 -3 15 -23 88 -31 120 -12 14 8 13 9 -9
10 -15 0 -48 12 -74 26 -31 18 -49 23 -54 16 -4 -7 -15 -4 -31 9 -15 12 -18
17 -7 13 13 -5 16 -2 10 12 -4 12 -3 15 5 10 7 -4 12 -1 12 8 0 9 6 16 13 16
7 0 4 7 -7 15 -22 17 -56 20 -56 6 0 -6 -9 -8 -20 -6 -11 2 -18 0 -15 -6 4 -5
13 -9 21 -9 8 0 14 -9 14 -21 0 -22 -3 -21 -53 14 -19 13 -27 26 -24 38 3 11
1 19 -4 19 -5 0 -9 -4 -9 -10 0 -5 -4 -10 -10 -10 -5 0 -10 8 -10 18 0 9 -10
24 -22 32 -22 14 -28 16 -47 19 -5 0 -33 24 -62 51 -29 28 -56 50 -60 50 -4 0
-9 9 -12 21 -5 19 -4 19 11 6 32 -27 46 -32 39 -14 -8 20 2 21 27 2 10 -7 15
-18 12 -23 -8 -14 62 -20 75 -7 7 7 8 5 4 -6 -4 -10 -1 -20 5 -24 8 -5 11 1 8
16 -2 16 -12 26 -33 32 -16 5 -49 18 -72 29 -42 20 -43 22 -43 70 0 39 6 57
25 80 14 16 23 34 20 38 -3 5 9 7 27 5 18 -3 47 2 63 10 17 7 53 14 80 14 73
0 355 103 355 129 0 7 5 10 10 7 6 -3 10 3 10 14 0 12 5 21 10 21 6 0 10 4 10
9 0 11 -46 0 -133 -32 -66 -24 -136 -80 -138 -109 0 -7 -5 -2 -10 11 -7 19
-14 22 -35 17 -17 -5 -23 -3 -19 4 4 6 3 10 -2 9 -16 -3 -56 1 -52 5 2 2 24 7
49 11 58 9 61 11 54 41 -4 14 -2 24 5 24 6 0 11 -9 11 -20 0 -15 7 -20 24 -20
14 0 27 4 31 9 3 5 19 12 36 16 17 4 28 10 24 13 -8 8 84 44 96 37 8 -6 14 18
9 40 -1 6 -4 19 -6 30 -2 11 -11 49 -19 85 -33 142 -66 297 -72 331 -5 35 -6
36 -32 24 -51 -25 -78 -26 -84 -6 -5 19 -8 19 -63 6 -33 -7 -66 -15 -74 -18
-8 -2 -12 -2 -9 0 8 5 -2 63 -10 63 -4 0 -18 -11 -31 -25z m-20 -85 c0 -5 -5
-10 -11 -10 -5 0 -7 5 -4 10 3 6 8 10 11 10 2 0 4 -4 4 -10z m129 -48 c6 -20
6 -32 0 -32 -11 0 -29 43 -29 68 0 24 19 2 29 -36z m-49 12 c0 -8 -5 -12 -10
-9 -6 4 -8 11 -5 16 9 14 15 11 15 -7z m10 -40 c0 -8 -4 -12 -10 -9 -5 3 -10
10 -10 16 0 5 5 9 10 9 6 0 10 -7 10 -16z m-290 -4 c0 -5 -2 -10 -4 -10 -3 0
-8 5 -11 10 -3 6 -1 10 4 10 6 0 11 -4 11 -10z m465 -10 c3 -5 2 -10 -4 -10
-5 0 -13 5 -16 10 -3 6 -2 10 4 10 5 0 13 -4 16 -10z m-1622 -57 c-7 -2 -19
-2 -25 0 -7 3 -2 5 12 5 14 0 19 -2 13 -5z m-516 -9 c-3 -3 -12 -4 -19 -1 -8
3 -5 6 6 6 11 1 17 -2 13 -5z m760 -10 c-3 -3 -12 -4 -19 -1 -8 3 -5 6 6 6 11
1 17 -2 13 -5z m1398 -4 c8 -13 -5 -13 -25 0 -13 8 -13 10 2 10 9 0 20 -4 23
-10z m-1315 -20 c0 -5 -5 -10 -11 -10 -5 0 -7 5 -4 10 3 6 8 10 11 10 2 0 4
-4 4 -10z m-2125 -30 c3 -5 1 -10 -4 -10 -6 0 -11 5 -11 10 0 6 2 10 4 10 3 0
8 -4 11 -10z m966 -35 c5 4 9 2 9 -3 0 -6 -6 -12 -14 -15 -17 -7 -30 19 -19
36 5 8 9 6 11 -6 2 -9 8 -15 13 -12z m744 -5 c3 -5 1 -10 -4 -10 -6 0 -11 5
-11 10 0 6 2 10 4 10 3 0 8 -4 11 -10z m670 0 c3 -5 1 -10 -4 -10 -6 0 -11 5
-11 10 0 6 2 10 4 10 3 0 8 -4 11 -10z m245 -9 c25 -6 62 -11 83 -11 21 0 37
-5 37 -11 0 -9 -19 -9 -67 -4 -38 5 -83 9 -100 9 -24 1 -33 6 -33 18 0 18 1
18 80 -1z m-187 -11 c3 -12 0 -20 -8 -20 -8 0 -11 8 -8 20 3 11 7 20 8 20 1 0
5 -9 8 -20z m554 14 c-3 -3 -12 -4 -19 -1 -8 3 -5 6 6 6 11 1 17 -2 13 -5z
m43 -12 c0 -17 -36 -41 -70 -47 l-35 -5 35 22 c19 12 37 26 38 30 5 11 32 10
32 0z m-631 -82 c-1 -42 -3 -49 -9 -30 -12 38 -12 119 0 100 5 -8 9 -40 9 -70z
m-1659 50 c0 -5 -4 -10 -10 -10 -5 0 -10 5 -10 10 0 6 5 10 10 10 6 0 10 -4
10 -10z m567 -4 c-3 -7 -2 -17 3 -22 4 -5 10 -25 14 -45 5 -27 3 -38 -8 -42
-11 -5 -17 5 -21 38 -7 40 0 85 12 85 3 0 3 -6 0 -14z m1315 -21 c1 -14 2 -32
2 -42 1 -17 -34 -28 -44 -14 -8 14 -70 0 -70 -15 0 -13 13 -19 34 -15 5 1 4
-4 -2 -11 -7 -9 -9 -35 -5 -70 5 -54 7 -56 39 -61 19 -3 50 -3 69 0 23 4 35 2
35 -6 0 -6 11 -11 25 -11 20 0 25 -5 25 -25 0 -23 -2 -24 -20 -15 -11 6 -25 8
-30 5 -5 -3 -11 -1 -14 4 -5 7 -42 19 -78 25 -3 1 -10 4 -14 9 -4 4 -14 7 -23
7 -11 0 -12 -3 -4 -8 7 -4 9 -13 4 -21 -6 -9 -10 -6 -15 11 -5 19 -8 20 -16 8
-5 -8 -10 -24 -10 -35 0 -29 -19 -45 -54 -45 l-30 0 26 28 c42 44 48 66 44
144 -3 52 -1 79 9 95 11 16 12 23 2 27 -6 3 -3 5 8 5 59 -3 76 1 74 19 -2 27
0 32 16 32 9 0 16 -10 17 -25z m-1822 5 c0 -5 -2 -10 -4 -10 -3 0 -8 5 -11 10
-3 6 -1 10 4 10 6 0 11 -4 11 -10z m1659 -26 c13 -30 14 -34 3 -34 -8 0 -16
14 -40 63 -2 4 3 5 11 1 8 -3 19 -16 26 -30z m606 -16 c6 -23 4 -26 -12 -22
-15 4 -18 12 -15 35 5 34 17 28 27 -13z m281 18 c3 -14 4 -33 1 -43 -4 -14 -5
-13 -6 5 -1 17 -6 22 -18 20 -10 -2 -17 -11 -17 -21 1 -9 -2 -14 -7 -11 -17
10 -9 36 12 41 12 3 18 11 15 19 -3 8 -1 14 4 14 5 0 12 -11 16 -24z m-2059
-68 c-3 -8 -6 -5 -6 6 -1 11 2 17 5 13 3 -3 4 -12 1 -19z m1260 16 c-3 -3 -12
-4 -19 -1 -8 3 -5 6 6 6 11 1 17 -2 13 -5z m63 -26 c0 -13 -23 -5 -28 10 -2 7
2 10 12 6 9 -3 16 -11 16 -16z m304 13 c3 -5 0 -11 -7 -14 -8 -3 -14 1 -14 9
0 16 13 19 21 5z m-479 -63 c4 -7 -3 -2 -14 11 -12 13 -21 31 -21 40 0 14 6 6
35 -51z m-751 10 c8 -5 8 -8 0 -8 -7 0 -10 -27 -8 -80 2 -44 0 -80 -4 -80 -6
0 -42 160 -42 188 0 17 35 19 39 2 2 -8 8 -18 15 -22z m696 32 c0 -5 -2 -10
-4 -10 -3 0 -8 5 -11 10 -3 6 -1 10 4 10 6 0 11 -4 11 -10z m489 -16 c-12 -15
-11 -16 9 -10 13 4 22 3 22 -3 0 -6 12 -8 31 -4 25 5 31 3 27 -8 -3 -9 -17
-13 -39 -12 -95 7 -99 8 -99 26 0 10 5 15 10 12 6 -3 10 -2 10 4 0 6 7 8 15 5
8 -4 15 -1 15 7 0 7 3 9 6 6 4 -4 1 -14 -7 -23z m-469 -34 c0 8 11 -4 25 -27
20 -37 22 -46 12 -66 -11 -20 -15 -22 -25 -10 -7 7 -17 11 -21 8 -9 -5 -21 50
-21 94 0 24 0 24 15 5 11 -14 14 -15 15 -4z m668 -37 c-2 -9 -19 -22 -38 -28
-19 -6 -36 -17 -36 -23 -1 -7 -2 -16 -3 -22 0 -5 -11 -10 -23 -10 -22 0 -48
36 -48 67 0 17 40 17 54 -1 9 -12 17 -12 46 -3 30 10 36 17 39 47 3 26 6 29 8
12 3 -12 3 -30 1 -39z m-771 15 c-3 -7 -5 -2 -5 12 0 14 2 19 5 13 2 -7 2 -19
0 -25z m482 15 c-4 -48 2 -123 11 -123 12 0 33 47 32 72 0 10 5 15 13 12 11
-5 12 -10 2 -24 -15 -25 -6 -33 26 -21 17 7 30 22 37 43 9 31 10 30 5 -12 -3
-24 -11 -50 -17 -58 -9 -11 -6 -12 17 -6 21 5 26 4 20 -5 -4 -8 1 -14 14 -18
21 -5 21 -6 -4 -29 -19 -17 -31 -21 -47 -15 -19 7 -20 8 -3 14 14 6 15 10 5
22 -7 8 -22 15 -34 15 -22 -1 -80 -29 -60 -30 7 0 15 -7 18 -16 5 -13 1 -15
-19 -10 -22 6 -25 3 -25 -21 0 -20 -3 -24 -9 -14 -5 8 -14 10 -21 6 -8 -5 -11
-4 -7 2 4 6 -5 15 -19 22 -35 15 -27 41 16 55 28 9 36 17 38 40 3 19 0 26 -8
21 -9 -6 -9 -2 -1 14 8 13 8 27 3 39 -10 19 -5 42 9 42 6 0 9 -8 8 -17z m776
-2 c-13 -11 -107 -42 -112 -37 -2 2 22 13 54 24 69 24 70 24 58 13z m-1255
-88 c-11 -17 -11 -17 -6 0 3 10 7 28 7 40 2 22 2 22 6 0 2 -12 -1 -30 -7 -40z
m895 17 c-16 -4 -41 -8 -55 -8 -22 0 -22 1 5 8 17 4 41 8 55 8 22 0 22 -1 -5
-8z m-158 -6 c-3 -3 -12 -4 -19 -1 -8 3 -5 6 6 6 11 1 17 -2 13 -5z m-2423
-21 c12 -7 6 -9 -24 -7 -23 1 -46 6 -52 12 -13 13 52 9 76 -5z m2611 1 c-27
-7 -57 -13 -65 -13 -21 1 70 27 95 27 11 0 -2 -6 -30 -14z m-2698 -51 c-3 -10
-5 -2 -5 17 0 19 2 27 5 18 2 -10 2 -26 0 -35z m138 37 c3 -5 -1 -10 -10 -10
-9 0 -13 5 -10 10 3 6 8 10 10 10 2 0 7 -4 10 -10z m662 -27 c-3 -10 -5 -4 -5
12 0 17 2 24 5 18 2 -7 2 -21 0 -30z m1013 27 c0 -5 -2 -10 -4 -10 -3 0 -8 5
-11 10 -3 6 -1 10 4 10 6 0 11 -4 11 -10z m750 -6 c0 -3 -8 -13 -17 -22 -16
-16 -16 -16 -10 0 4 12 0 18 -16 21 -15 3 -12 5 11 6 17 0 32 -2 32 -5z m-790
-24 c12 -11 27 -17 31 -14 5 3 9 -12 8 -33 -1 -31 -2 -34 -8 -14 -7 27 -31 41
-31 19 0 -10 -2 -10 -8 -1 -4 7 -19 14 -32 16 -30 5 -33 29 -5 39 11 3 20 6
21 7 1 1 11 -8 24 -19z m281 0 c5 0 9 -4 9 -10 0 -5 -9 -10 -19 -10 -11 0 -22
-6 -24 -12 -3 -8 -6 -6 -6 5 -1 9 5 17 12 17 8 0 7 4 -3 11 -12 9 -12 10 3 5
10 -3 23 -6 28 -6z m-1562 -7 c-3 -21 2 -24 18 -12 15 13 15 12 3 -8 -16 -25
-63 -34 -102 -21 -47 16 -34 37 25 41 28 2 53 4 55 5 1 1 1 -1 1 -5z m1838 1
c-3 -3 -12 -4 -19 -1 -8 3 -5 6 6 6 11 1 17 -2 13 -5z m-2007 -26 c0 -13 -3
-18 -8 -12 -4 6 -16 16 -27 22 -19 11 -18 11 8 12 21 0 27 -5 27 -22z m252 -5
c-14 -3 -20 -9 -15 -16 4 -7 -2 -5 -13 3 -10 8 -20 15 -22 16 -1 0 15 1 35 1
21 0 28 -2 15 -4z m112 -18 c-3 -8 -12 -11 -20 -8 -15 5 -18 16 -8 26 11 10
33 -4 28 -18z m1470 9 c3 -8 2 -12 -4 -9 -6 3 -10 10 -10 16 0 14 7 11 14 -7z
m270 -2 c3 -5 -1 -9 -9 -9 -8 0 -15 4 -15 9 0 4 4 8 9 8 6 0 12 -4 15 -8z m48
-14 c-7 -7 -12 -8 -12 -2 0 14 12 26 19 19 2 -3 -1 -11 -7 -17z m-375 -12 c3
-3 1 -6 -5 -6 -6 0 -10 -12 -9 -26 1 -15 -4 -29 -10 -31 -7 -3 -13 0 -13 6 0
6 -9 20 -20 31 -11 11 -20 23 -20 28 0 9 68 8 77 -2z m33 10 c0 -3 -4 -8 -10
-11 -5 -3 -10 -1 -10 4 0 6 5 11 10 11 6 0 10 -2 10 -4z m-1640 -36 c0 -24 -3
-28 -17 -23 -11 4 -12 8 -5 11 7 2 12 12 12 23 0 10 2 19 5 19 3 0 5 -13 5
-30z m1780 20 c0 -5 -5 -10 -11 -10 -5 0 -7 5 -4 10 3 6 8 10 11 10 2 0 4 -4
4 -10z m-1046 -9 c3 -5 -1 -12 -10 -15 -9 -4 -14 -9 -10 -13 8 -9 -36 -31 -52
-25 -9 3 -8 8 4 17 16 11 16 12 0 18 -10 4 -14 11 -11 17 8 12 72 13 79 1z
m-414 -19 c0 -4 -9 -8 -21 -9 -12 -1 -27 -10 -33 -19 -9 -11 -15 -13 -20 -6
-4 6 5 18 21 26 31 17 53 20 53 8z m30 -2 c0 -5 -2 -10 -4 -10 -3 0 -8 5 -11
10 -3 6 -1 10 4 10 6 0 11 -4 11 -10z m1548 -36 c-3 -13 -5 -13 -23 -1 -17 13
-17 17 -5 32 12 15 14 15 22 0 5 -8 8 -22 6 -31z m35 32 c3 -8 0 -17 -7 -19
-10 -4 -12 1 -9 14 6 23 9 24 16 5z m-498 -6 c3 -6 -1 -7 -9 -4 -18 7 -21 14
-7 14 6 0 13 -4 16 -10z m280 -25 c1 -13 -4 -21 -10 -18 -10 3 -12 23 -6 52 3
13 16 -14 16 -34z m135 18 c0 -2 -6 -11 -14 -18 -11 -12 -13 -10 -13 10 0 16
4 22 13 18 8 -3 14 -7 14 -10z m-570 -3 c0 -5 -9 -10 -21 -10 -11 0 -17 5 -14
10 3 6 13 10 21 10 8 0 14 -4 14 -10z m525 0 c3 -5 1 -10 -4 -10 -6 0 -11 5
-11 10 0 6 2 10 4 10 3 0 8 -4 11 -10z m-315 -26 c0 -2 -9 0 -20 6 -11 6 -20
13 -20 16 0 2 9 0 20 -6 11 -6 20 -13 20 -16z m-1643 -16 c-3 -8 -6 -5 -6 6
-1 11 2 17 5 13 3 -3 4 -12 1 -19z m153 12 c0 -5 -8 -10 -17 -10 -15 0 -16 2
-3 10 19 12 20 12 20 0z m735 -21 c9 -17 15 -33 13 -35 -3 -2 -12 12 -21 31
-21 43 -13 47 8 4z m575 6 c0 -18 5 -25 19 -25 11 0 23 5 26 10 3 6 12 10 18
9 8 0 8 -2 -1 -6 -8 -3 -9 -10 -4 -16 4 -7 13 -24 20 -39 9 -23 9 -26 -3 -21
-8 3 -15 14 -15 24 0 10 -4 19 -9 19 -11 0 -1 -43 12 -51 14 -10 -70 -44 -151
-63 -112 -25 -117 -17 -9 14 54 15 101 30 104 34 10 10 -5 18 -34 19 -15 0
-22 2 -15 4 6 3 12 9 12 15 0 7 -25 9 -72 5 -60 -5 -66 -4 -33 4 116 28 115
28 115 59 0 17 5 30 10 30 6 0 10 -11 10 -25z m490 8 c0 -5 -5 -15 -10 -23 -8
-12 -10 -11 -10 8 0 12 5 22 10 22 6 0 10 -3 10 -7z m176 -20 c-7 -7 -26 7
-26 19 0 6 6 6 15 -2 9 -7 13 -15 11 -17z m-246 -37 c0 -37 -9 -48 -44 -51
-18 -2 -22 2 -21 26 0 16 8 35 20 43 32 25 45 19 45 -18z m185 24 c3 -6 -1 -7
-9 -4 -18 7 -21 14 -7 14 6 0 13 -4 16 -10z m-1925 -15 c11 -13 10 -14 -4 -9
-9 3 -16 10 -16 15 0 13 6 11 20 -6z m1648 -27 c20 -20 13 -32 -7 -14 -19 17
-20 17 -24 -6 -4 -21 -4 -20 -6 5 -1 29 16 36 37 15z m207 -18 c-4 -6 4 -9 17
-7 15 1 22 -3 20 -11 -1 -8 1 -11 6 -8 5 3 16 -4 25 -15 9 -10 24 -19 32 -19
18 0 21 -50 3 -51 -10 0 -10 -2 0 -6 20 -8 14 -20 -13 -25 -20 -4 -23 -3 -14
8 9 11 3 18 -25 35 -31 18 -34 23 -25 41 10 18 9 20 -5 15 -9 -4 -23 -10 -33
-14 -12 -5 -14 -3 -8 7 5 9 4 11 -4 6 -6 -4 -9 -11 -6 -16 3 -4 -2 -10 -10
-14 -10 -4 -15 1 -15 14 0 23 -17 27 -22 6 -2 -11 -10 -9 -31 10 l-28 24 41
-4 c33 -3 40 -1 40 13 0 27 20 42 42 30 10 -5 16 -14 13 -19z m-1949 -56 c2
-16 -4 -24 -22 -28 -14 -4 -29 -4 -34 -1 -4 3 -11 -1 -14 -7 -3 -7 -4 -4 -3 7
1 15 -3 19 -18 17 -11 -2 -29 -4 -40 -5 -11 -1 -25 -5 -31 -9 -12 -8 -24 -1
-24 14 0 5 4 7 9 3 12 -7 83 25 94 43 4 6 15 12 22 12 8 0 15 5 15 12 0 20 44
-34 46 -58z m75 47 c18 -14 21 -22 12 -32 -6 -8 -7 -22 -2 -34 11 -29 11 -57
-1 -50 -5 3 -10 20 -10 37 0 28 -2 30 -27 23 l-27 -6 19 21 c16 17 17 24 7 41
-15 24 -1 25 29 0z m739 -11 c0 -30 6 -34 45 -30 19 1 18 0 -3 -15 -15 -11
-21 -23 -17 -35 5 -17 3 -18 -27 -10 -18 6 -41 18 -51 29 -18 18 -18 19 7 25
21 5 26 12 26 36 0 17 5 30 10 30 6 0 10 -13 10 -30z m795 20 c3 -5 -3 -10
-15 -10 -12 0 -18 5 -15 10 3 6 10 10 15 10 5 0 12 -4 15 -10z m-1767 -30 c-7
-10 -14 -18 -15 -16 -6 6 9 36 18 36 5 0 4 -9 -3 -20z m559 -20 c3 0 12 8 20
18 10 13 13 13 11 2 -2 -11 8 -16 35 -18 33 -3 36 -5 22 -19 -12 -11 -19 -12
-29 -4 -7 6 -16 8 -19 4 -4 -3 -7 -2 -7 4 0 6 -11 8 -25 5 -22 -4 -25 -1 -24
24 1 24 2 25 6 7 2 -13 7 -23 10 -23z m753 30 c0 -5 -2 -10 -4 -10 -3 0 -8 5
-11 10 -3 6 -1 10 4 10 6 0 11 -4 11 -10z m173 3 c-7 -2 -19 -2 -25 0 -7 3 -2
5 12 5 14 0 19 -2 13 -5z m-2093 -13 c0 -5 -4 -10 -10 -10 -5 0 -10 5 -10 10
0 6 5 10 10 10 6 0 10 -4 10 -10z m2043 3 c-7 -2 -19 -2 -25 0 -7 3 -2 5 12 5
14 0 19 -2 13 -5z m533 -43 c33 -11 44 -32 24 -45 -5 -3 -10 -11 -10 -16 0 -6
7 -4 15 5 8 8 15 19 15 24 0 6 7 13 16 16 14 5 15 4 4 -9 -10 -12 -10 -15 4
-15 10 0 27 5 38 11 16 8 22 8 29 -2 5 -9 -1 -17 -22 -26 -16 -6 -29 -17 -29
-23 0 -8 6 -7 21 0 11 7 23 10 25 7 10 -10 -28 -37 -51 -37 -13 0 -27 -5 -30
-11 -4 -6 -17 2 -32 20 -14 17 -32 31 -39 31 -15 0 -15 1 -19 65 -2 22 -1 35
2 28 2 -7 20 -17 39 -23z m-622 -21 l31 -1 -30 -8 c-50 -13 -65 -11 -59 5 4
10 0 15 -12 16 -17 1 -17 2 -1 6 9 2 17 10 18 16 0 7 5 2 11 -10 8 -16 21 -23
42 -24z m496 22 c0 -6 -4 -12 -8 -15 -5 -3 -9 1 -9 9 0 8 4 15 9 15 4 0 8 -4
8 -9z m-1281 -22 c-14 -8 -29 -3 -29 11 0 4 9 6 21 3 15 -4 17 -8 8 -14z m82
-31 l2 -23 4 23 c5 27 23 29 23 3 0 -11 6 -22 13 -24 6 -3 1 -6 -13 -6 -14 0
-32 4 -40 9 -8 5 -11 10 -6 10 5 0 3 7 -4 15 -10 12 -10 15 4 15 10 0 17 -9
17 -22z m391 -8 c5 0 7 8 4 18 -6 16 -5 16 8 0 7 -10 22 -18 32 -19 27 -1 -40
-17 -106 -24 -31 -3 -67 -2 -80 4 -22 9 -19 10 23 10 30 1 47 5 47 14 0 7 3 8
8 2 14 -19 34 -15 40 7 5 19 7 20 10 6 2 -10 8 -18 14 -18z m-162 10 c0 -5 -7
-7 -15 -4 -8 4 -15 8 -15 10 0 2 7 4 15 4 8 0 15 -4 15 -10z m367 4 c-3 -3
-12 -4 -19 -1 -8 3 -5 6 6 6 11 1 17 -2 13 -5z m-1790 -36 c-3 -8 -6 -5 -6 6
-1 11 2 17 5 13 3 -3 4 -12 1 -19z m782 -48 c1 -13 0 -13 -9 0 -5 8 -9 24 -9
35 l0 20 9 -20 c5 -11 9 -27 9 -35z m1871 -48 c0 -15 -2 -15 -10 -2 -13 20
-13 33 0 25 6 -3 10 -14 10 -23z m75 18 c3 -6 -1 -7 -9 -4 -18 7 -21 14 -7 14
6 0 13 -4 16 -10z m-2181 -22 c-3 -4 -9 -8 -15 -8 -5 0 -9 4 -9 8 0 5 7 9 15
9 8 0 12 -4 9 -9z m1147 -66 c-16 -31 -38 -68 -48 -81 -20 -24 -20 -24 -25 -3
-7 24 50 127 69 127 6 0 15 3 19 8 16 16 13 4 -15 -51z m989 38 c0 -5 -2 -10
-4 -10 -3 0 -8 5 -11 10 -3 6 -1 10 4 10 6 0 11 -4 11 -10z m75 -40 c3 -5 1
-10 -4 -10 -6 0 -11 5 -11 10 0 6 2 10 4 10 3 0 8 -4 11 -10z m-45 -30 c0 -5
-5 -10 -11 -10 -5 0 -7 5 -4 10 3 6 8 10 11 10 2 0 4 -4 4 -10z m55 -10 c3 -5
2 -10 -4 -10 -5 0 -13 5 -16 10 -3 6 -2 10 4 10 5 0 13 -4 16 -10z m-2224
-155 c5 26 6 23 8 -15 1 -33 4 -41 11 -30 5 8 10 13 11 10 0 -3 2 -12 4 -20 4
-24 -44 -24 -53 -1 -4 11 -5 61 -2 113 l5 93 5 -90 c3 -58 7 -79 11 -60z m6
93 c-2 -13 -4 -5 -4 17 -1 22 1 32 4 23 2 -10 2 -28 0 -40z m953 43 c0 -6 -4
-13 -10 -16 -5 -3 -10 1 -10 9 0 9 5 16 10 16 6 0 10 -4 10 -9z m1310 -66 c13
-14 21 -25 18 -25 -2 0 -15 11 -28 25 -13 14 -21 25 -18 25 2 0 15 -11 28 -25z
m-1211 -22 c-5 -14 -13 -33 -19 -43 -5 -10 -20 -55 -33 -100 -19 -65 -25 -77
-29 -57 -3 15 -1 24 4 21 5 -3 6 6 2 22 -4 17 -3 25 3 21 5 -3 10 6 10 21 1
41 41 139 57 139 11 0 12 -6 5 -24z m77 -11 c-4 -3 -14 2 -24 12 -16 18 -16
18 6 6 13 -6 21 -14 18 -18z m-825 -22 c14 -11 18 -19 11 -20 -7 0 -11 -4 -8
-9 3 -5 -5 -16 -18 -25 -13 -8 -36 -27 -51 -40 -40 -37 -94 -29 -95 12 0 7 5
10 10 7 6 -3 10 -1 10 4 0 6 -7 11 -15 11 -13 0 -13 3 -3 14 18 19 50 -2 42
-29 -5 -18 -4 -19 6 -2 14 22 -13 72 -35 63 -9 -3 -12 0 -8 10 7 19 17 18 38
-6 19 -21 44 -26 61 -12 5 4 1 -1 -9 -10 -19 -18 -19 -18 1 -18 30 0 49 27 34
51 -16 25 -1 24 29 -1z m939 -16 c9 -9 9 -18 0 -31 -10 -16 -10 -16 -5 3 4 18
0 23 -22 27 -15 3 -31 1 -34 -4 -7 -12 -39 -1 -39 13 0 5 10 6 21 3 12 -4 19
-3 16 2 -9 15 51 3 63 -13z m-1169 -9 c1 -17 -18 -17 -25 0 -4 11 -1 15 10 13
8 -2 15 -7 15 -13z m1224 -25 c0 -7 -6 -15 -12 -17 -8 -3 -13 4 -13 17 0 13 5
20 13 18 6 -3 12 -11 12 -18z m-1442 -5 c18 -13 17 -14 -13 -30 -17 -9 -39
-14 -47 -10 -14 5 -12 9 7 30 27 29 29 29 53 10z m-74 -55 c11 -24 11 -24 -3
-6 -9 11 -16 24 -16 30 0 12 5 7 19 -24z m1011 -10 c0 -4 -9 -10 -20 -13 -11
-3 -18 -2 -15 3 3 4 -5 11 -18 14 -21 6 -22 7 -3 21 17 13 22 13 38 -2 10 -9
18 -19 18 -23z m-523 23 c-4 -3 -2 -12 4 -20 9 -10 6 -13 -15 -11 -14 1 -26 4
-26 6 0 7 26 31 34 32 5 0 6 -3 3 -7z m1247 -2 c3 -4 -6 -6 -19 -3 -14 2 -25
6 -25 8 0 8 39 4 44 -5z m-1464 -13 c0 -4 -7 -8 -15 -8 -8 0 -15 4 -15 8 0 5
7 9 15 9 8 0 15 -4 15 -9z m49 -19 c-13 -26 -34 -49 -44 -49 -8 0 15 42 34 61
21 22 26 16 10 -12z m236 11 c3 -6 -1 -7 -9 -4 -18 7 -21 14 -7 14 6 0 13 -4
16 -10z m412 -67 c-3 -3 -11 -2 -17 2 -8 5 -7 11 2 22 12 15 13 14 16 -1 2
-10 1 -20 -1 -23z m-740 21 c-3 -3 -12 -4 -19 -1 -8 3 -5 6 6 6 11 1 17 -2 13
-5z m958 -71 c-4 -10 -7 -28 -6 -40 1 -13 -2 -23 -8 -23 -6 0 -11 5 -11 10 0
6 -12 11 -27 11 l-28 2 26 4 c28 4 42 29 40 73 -1 25 -1 25 10 3 7 -12 8 -30
4 -40z m-1306 -20 l41 -46 -25 -27 c-16 -17 -27 -43 -31 -73 -4 -26 -10 -47
-13 -47 -8 0 -49 229 -42 235 12 13 33 1 70 -42z m-179 -3 c0 -11 7 -20 15
-20 17 0 20 -25 5 -35 -6 -4 -2 -22 11 -46 13 -27 18 -50 14 -68 -6 -29 20
-111 35 -111 5 0 19 -43 31 -96 19 -82 25 -97 46 -105 27 -10 22 -29 -7 -29
-10 0 -28 -12 -39 -27 -12 -14 -24 -23 -28 -20 -3 4 2 17 13 29 10 13 12 17 4
11 -11 -10 -35 -1 -129 49 -64 33 -118 63 -121 65 -2 2 8 14 23 26 24 20 30
40 63 210 26 134 40 187 50 187 8 0 14 -9 14 -20z m2594 -26 c4 -10 1 -14 -6
-12 -15 5 -23 28 -10 28 5 0 13 -7 16 -16z m-1879 -14 c-18 -8 -18 -9 -2 -9
10 -1 16 -5 13 -10 -4 -5 0 -11 6 -14 7 -2 11 -7 8 -10 -3 -3 -36 2 -75 11
l-70 16 45 12 c25 7 56 12 70 12 23 1 23 0 5 -8z m1568 -7 c-7 -2 -19 -2 -25
0 -7 3 -2 5 12 5 14 0 19 -2 13 -5z m-2012 -61 c19 -21 51 -60 72 -85 21 -26
46 -47 57 -47 10 0 21 -3 23 -7 3 -5 -30 -56 -73 -115 -54 -74 -77 -114 -73
-127 5 -18 2 -19 -30 -9 -35 11 -36 13 -56 100 -26 112 -26 115 3 122 33 8 38
28 15 72 -23 47 -24 91 -2 116 22 25 26 24 64 -20z m393 -2 c55 -5 92 -13 97
-22 6 -9 9 -6 10 12 l1 25 7 -25 c6 -20 13 -25 39 -25 19 0 31 -4 28 -11 -2
-6 0 -17 5 -25 7 -11 9 -11 9 -1 0 20 13 12 78 -50 57 -54 59 -58 53 -95 l-7
-38 -17 35 c-21 41 -73 101 -86 98 -5 -2 -21 10 -36 26 l-27 29 -28 -29 c-27
-29 -52 -93 -30 -79 17 11 42 -15 30 -30 -7 -9 -6 -51 4 -136 8 -68 13 -125
11 -127 -1 -1 -43 48 -92 109 l-90 112 35 68 c33 64 36 67 58 57 13 -6 27 -8
32 -3 4 4 1 10 -5 12 -7 3 -13 13 -13 23 0 26 -17 34 -35 17 -8 -9 -23 -13
-32 -11 -12 4 -31 -10 -57 -40 -33 -39 -40 -43 -57 -33 -16 10 -19 24 -19 96
0 82 0 83 23 76 12 -3 62 -10 111 -15z m1939 4 c-3 -7 -11 -10 -19 -7 -20 8
-17 22 5 20 10 0 17 -7 14 -13z m-1153 -54 c12 -8 11 -10 -7 -10 -13 0 -23 5
-23 10 0 13 11 13 30 0z m-1570 -101 c-11 -51 -24 -97 -29 -102 -17 -17 -25
43 -11 82 25 69 51 124 56 119 2 -3 -4 -47 -16 -99z m2499 13 c0 -11 -2 -12
-6 -4 -2 6 -14 12 -26 12 -18 -1 -10 -12 43 -60 35 -33 61 -60 56 -60 -14 0
-136 103 -131 111 3 4 -3 5 -12 3 -10 -2 -29 5 -43 15 -23 18 -24 21 -9 36 12
13 21 14 44 5 26 -10 27 -9 14 7 -8 10 5 3 29 -16 23 -18 42 -40 41 -49z
m-849 -4 c0 -12 -6 -9 -26 13 -19 22 -19 22 4 8 12 -8 22 -17 22 -21z m-720 7
c0 -8 -4 -15 -10 -15 -5 0 -10 7 -10 15 0 8 5 15 10 15 6 0 10 -7 10 -15z
m1615 -15 c3 -5 -1 -10 -9 -10 -9 0 -16 5 -16 10 0 6 4 10 9 10 6 0 13 -4 16
-10z m-1470 -104 c16 -34 22 -59 18 -75 -5 -21 -11 -15 -44 50 -21 41 -38 83
-39 93 0 18 1 19 20 1 11 -10 31 -41 45 -69z m625 74 c8 -5 11 -10 5 -10 -5 0
-17 5 -25 10 -8 5 -10 10 -5 10 6 0 17 -5 25 -10z m-1038 -32 c-9 -9 -12 -7
-12 12 0 19 3 21 12 12 9 -9 9 -15 0 -24z m390 -130 l29 -60 -16 -96 c-9 -53
-19 -106 -22 -117 -6 -17 -20 81 -48 325 -6 54 -6 55 11 31 9 -13 30 -50 46
-83z m-301 35 c56 -63 61 -75 14 -33 -52 46 -63 60 -48 60 5 0 20 -12 34 -27z
m1819 -7 c0 -7 -13 -42 -28 -77 -38 -85 -44 -100 -49 -123 -7 -40 -16 -29 -9
13 13 87 86 246 86 187z m94 -1 c3 -9 0 -15 -9 -15 -16 0 -27 14 -18 24 10 10
21 7 27 -9z m-1868 -101 c76 -67 98 -92 99 -115 2 -15 15 -49 30 -75 16 -26
33 -68 39 -92 14 -53 41 -69 74 -43 24 17 24 19 43 189 6 56 14 102 18 102 7
0 101 -199 101 -214 -1 -6 -30 -32 -65 -58 -53 -40 -62 -51 -57 -70 5 -20 4
-21 -11 -10 -9 8 -13 20 -10 28 3 8 0 14 -7 14 -6 0 -9 -4 -6 -9 4 -5 -10 -7
-32 -4 -20 4 -56 6 -79 7 -29 0 -39 4 -33 11 7 8 -38 42 -138 105 -81 52 -149
95 -151 97 -2 1 2 35 9 74 12 64 53 149 72 149 4 0 51 -39 104 -86z m-863 46
c5 -19 -63 -204 -82 -223 -7 -7 17 115 44 221 7 28 31 29 38 2z m1262 -130
c36 -74 65 -130 65 -125 0 5 5 4 12 -3 9 -9 9 -15 1 -23 -8 -8 -17 -6 -31 7
-30 29 -143 261 -136 279 10 24 18 12 89 -135z m1465 140 c0 -5 -2 -10 -4 -10
-3 0 -8 5 -11 10 -3 6 -1 10 4 10 6 0 11 -4 11 -10z m-2064 -168 c-3 -2 -12
-2 -21 2 -13 5 -14 10 -4 28 l12 22 9 -23 c5 -13 6 -26 4 -29z m2045 21 c-12
-20 -14 -14 -5 12 4 9 9 14 11 11 3 -2 0 -13 -6 -23z m-161 -59 c0 -8 -5 -12
-10 -9 -6 4 -8 11 -5 16 9 14 15 11 15 -7z m-195 -74 c10 -11 16 -20 13 -20
-3 0 -13 9 -23 20 -10 11 -16 20 -13 20 3 0 13 -9 23 -20z m-10 -16 c13 -9 28
-13 33 -10 6 3 15 0 21 -8 9 -11 5 -16 -20 -25 l-32 -11 27 -25 c15 -14 34
-25 43 -25 9 0 13 -3 9 -7 -12 -12 57 -73 90 -79 33 -6 57 -44 28 -44 -8 0
-14 4 -14 10 0 5 -15 18 -34 27 -18 10 -73 55 -121 100 -76 70 -86 84 -75 98
15 19 15 19 45 -1z m-979 -46 c4 -13 49 -109 100 -213 93 -189 103 -215 84
-215 -14 0 -222 420 -216 436 8 21 24 17 32 -8z m1212 -226 c2 -7 -2 -10 -12
-6 -9 3 -16 11 -16 16 0 13 23 5 28 -10z"/>
<path d="M3200 3726 c0 -18 17 -29 30 -21 8 5 7 11 -1 21 -15 18 -29 18 -29 0z"/>
<path d="M5041 3671 c-9 -6 -10 -11 -2 -15 13 -8 31 1 31 15 0 11 -11 11 -29
0z"/>
<path d="M4220 3460 c-6 -11 -8 -20 -6 -20 3 0 10 9 16 20 6 11 8 20 6 20 -3
0 -10 -9 -16 -20z"/>
<path d="M3233 2943 c9 -2 23 -2 30 0 6 3 -1 5 -18 5 -16 0 -22 -2 -12 -5z"/>
<path d="M2817 2519 c7 -7 15 -10 18 -7 3 3 -2 9 -12 12 -14 6 -15 5 -6 -5z"/>
<path d="M3327 2839 c7 -7 15 -10 18 -7 3 3 -2 9 -12 12 -14 6 -15 5 -6 -5z"/>
<path d="M3388 2143 c7 -3 16 -2 19 1 4 3 -2 6 -13 5 -11 0 -14 -3 -6 -6z"/>
<path d="M5947 4749 c4 -13 8 -18 11 -10 2 7 -1 18 -6 23 -8 8 -9 4 -5 -13z"/>
<path d="M5175 4739 c4 -6 -2 -13 -14 -16 -29 -7 -15 -24 16 -19 34 7 38 13
23 31 -14 17 -35 21 -25 4z"/>
<path d="M5031 4698 c3 -32 -10 -58 -26 -52 -7 3 -18 -3 -24 -14 -17 -32 8
-33 114 -6 20 5 20 5 1 -10 -19 -15 -18 -16 16 -16 39 0 60 15 31 23 -10 3 7
5 38 5 81 -1 100 7 89 37 -5 12 -6 26 -2 30 3 3 -1 3 -11 -1 -9 -3 -17 -10
-17 -14 0 -4 -20 -13 -45 -20 -58 -16 -122 1 -127 34 -2 11 -11 22 -21 24 -14
3 -18 -2 -16 -20z"/>
<path d="M3558 4693 c7 -3 16 -2 19 1 4 3 -2 6 -13 5 -11 0 -14 -3 -6 -6z"/>
<path d="M4730 4690 c-8 -5 -12 -12 -9 -15 4 -3 12 1 19 10 14 17 11 19 -10 5z"/>
<path d="M3093 4663 c-28 -5 -31 -23 -4 -23 10 0 21 7 25 15 3 8 4 14 3 14 -1
-1 -12 -4 -24 -6z"/>
<path d="M3206 4634 c3 -27 14 -47 14 -25 0 7 5 9 10 6 15 -9 12 -51 -5 -65
-8 -7 -15 -16 -15 -21 0 -13 28 -11 36 3 5 7 2 9 -7 4 -8 -4 -6 -1 4 7 23 19
22 52 -4 78 -17 17 -19 23 -8 30 11 7 9 9 -7 9 -17 0 -21 -5 -18 -26z"/>
<path d="M3931 4619 c-51 -11 -114 -31 -140 -44 -55 -29 -43 -30 89 -11 52 8
166 22 252 32 190 22 196 38 15 41 -92 2 -145 -2 -216 -18z"/>
<path d="M4595 4610 c4 -6 11 -8 16 -5 14 9 11 15 -7 15 -8 0 -12 -5 -9 -10z"/>
<path d="M2995 4590 c3 -5 17 -10 30 -10 13 0 27 5 30 10 4 6 -8 10 -30 10
-22 0 -34 -4 -30 -10z"/>
<path d="M4970 4596 c0 -3 5 -17 10 -31 8 -22 15 -26 34 -21 16 4 26 1 30 -9
3 -8 1 -15 -4 -15 -5 0 -7 -7 -4 -15 4 -8 10 -15 16 -15 5 0 7 4 4 9 -3 5 1
12 10 15 15 6 15 9 -2 28 -19 21 -19 21 8 16 18 -3 33 1 43 12 15 17 13 18
-37 17 -29 -1 -65 2 -80 6 -16 4 -28 5 -28 3z"/>
<path d="M3071 4558 c0 -13 3 -17 6 -10 2 6 11 12 19 12 8 0 14 5 14 10 0 6
-9 10 -20 10 -14 0 -20 -6 -19 -22z"/>
<path d="M3120 4564 c0 -14 3 -14 15 -4 8 7 15 14 15 16 0 2 -7 4 -15 4 -8 0
-15 -7 -15 -16z"/>
<path d="M4597 4563 c-15 -14 -6 -29 18 -31 24 -2 24 -1 8 18 -20 23 -18 22
-26 13z"/>
<path d="M4660 4560 c-11 -7 -4 -10 25 -10 29 0 36 3 25 10 -8 5 -19 10 -25
10 -5 0 -17 -5 -25 -10z"/>
<path d="M4553 4546 c-25 -12 -30 -26 -10 -26 16 0 31 12 35 28 1 6 1 11 0 11
-2 -1 -13 -6 -25 -13z"/>
<path d="M3837 4530 c-16 -5 -36 -6 -44 -3 -11 5 -14 3 -9 -6 5 -7 16 -11 26
-8 9 2 28 -1 41 -9 30 -15 56 0 38 22 -13 16 -13 16 -52 4z"/>
<path d="M3728 4523 c10 -4 10 -8 1 -19 -13 -16 -13 -15 36 -16 42 -1 55 8 26
17 -12 3 -21 11 -21 16 0 5 -12 9 -27 8 -16 0 -22 -3 -15 -6z"/>
<path d="M3393 4506 c0 -8 6 -12 14 -9 7 3 10 9 7 14 -8 14 -21 11 -21 -5z"/>
<path d="M3268 4503 c-32 -2 -58 -8 -58 -13 0 -12 111 -6 135 8 l20 11 -20 -1
c-11 -1 -46 -3 -77 -5z"/>
<path d="M2975 4475 c-39 -17 -21 -18 25 0 19 7 28 14 20 14 -8 0 -28 -6 -45
-14z"/>
<path d="M3348 4483 c7 -3 16 -2 19 1 4 3 -2 6 -13 5 -11 0 -14 -3 -6 -6z"/>
<path d="M3250 4459 c0 -11 22 -16 43 -11 29 7 19 22 -13 20 -16 -1 -30 -5
-30 -9z"/>
<path d="M4790 4460 c0 -5 5 -10 10 -10 6 0 10 5 10 10 0 6 -4 10 -10 10 -5 0
-10 -4 -10 -10z"/>
<path d="M2875 4431 c-27 -16 -61 -42 -75 -57 l-25 -29 30 26 c17 15 48 36 70
48 51 26 73 41 60 41 -5 0 -32 -13 -60 -29z"/>
<path d="M2400 4435 c0 -8 4 -15 8 -15 5 0 9 7 9 15 0 8 -4 15 -9 15 -4 0 -8
-7 -8 -15z"/>
<path d="M5913 4414 c-16 -16 -16 -41 -3 -80 11 -32 44 -43 54 -18 7 17 36 19
37 2 0 -7 4 -3 10 10 10 26 2 73 -15 84 -6 4 -21 4 -34 1 -14 -3 -27 -1 -31 5
-4 6 -10 5 -18 -4z"/>
<path d="M4595 4391 c-3 -5 -1 -12 5 -16 5 -3 10 1 10 9 0 18 -6 21 -15 7z"/>
<path d="M2817 4342 c-15 -15 -27 -35 -27 -43 1 -9 4 -7 12 6 6 11 20 30 31
43 29 32 16 27 -16 -6z"/>
<path d="M3950 4349 c0 -5 5 -7 10 -4 6 3 10 8 10 11 0 2 -4 4 -10 4 -5 0 -10
-5 -10 -11z"/>
<path d="M5995 4220 c3 -5 12 -7 20 -3 21 7 19 13 -6 13 -11 0 -18 -4 -14 -10z"/>
<path d="M2742 4148 c2 -23 10 -36 28 -45 37 -18 43 4 12 44 -34 42 -44 42
-40 1z"/>
<path d="M2860 4120 c0 -5 5 -10 11 -10 5 0 7 5 4 10 -3 6 -8 10 -11 10 -2 0
-4 -4 -4 -10z"/>
<path d="M5827 4078 c-15 -5 -24 -14 -21 -20 4 -5 1 -20 -5 -31 -6 -12 -22
-105 -36 -207 -14 -101 -28 -195 -31 -207 -8 -31 19 -40 51 -19 17 11 25 26
25 45 0 16 13 120 30 232 16 112 30 207 30 212 0 9 -8 8 -43 -5z"/>
<path d="M2789 3618 c-6 -28 -8 -88 -2 -88 16 0 47 44 35 48 -7 2 -12 12 -12
23 0 10 -4 19 -10 19 -5 0 -10 -1 -11 -2z"/>
<path d="M5817 3546 c10 -14 35 -34 56 -45 37 -20 37 -20 27 0 -6 11 -15 17
-20 14 -6 -4 -7 1 -3 11 4 11 2 15 -4 11 -6 -4 -18 2 -28 13 -27 30 -51 26
-28 -4z"/>
<path d="M5730 3540 c0 -5 5 -10 11 -10 5 0 7 5 4 10 -3 6 -8 10 -11 10 -2 0
-4 -4 -4 -10z"/>
<path d="M5771 3516 c7 -15 15 -23 17 -16 3 7 -3 19 -13 28 -15 16 -16 15 -4
-12z"/>
<path d="M5807 3503 c-14 -13 -6 -33 13 -33 11 0 20 4 20 9 0 13 -26 32 -33
24z"/>
<path d="M5960 3425 c-1 -11 -3 -28 -5 -38 -2 -12 9 -24 35 -37 50 -25 58 -25
35 0 -10 11 -29 37 -41 58 -18 29 -24 33 -24 17z"/>
<path d="M6050 3370 c0 -6 12 -15 26 -20 35 -14 37 -13 14 10 -22 22 -40 26
-40 10z"/>
<path d="M5765 3330 c-3 -5 -23 -14 -43 -20 -20 -5 -66 -29 -101 -52 -67 -44
-89 -71 -52 -61 15 4 21 1 21 -11 0 -9 6 -13 15 -10 8 3 22 -1 30 -10 9 -9 20
-16 24 -16 6 0 80 46 154 95 11 8 12 17 6 42 -10 34 -43 61 -54 43z m-2 -47
c-7 -2 -21 -2 -30 0 -10 3 -4 5 12 5 17 0 24 -2 18 -5z m44 1 c-3 -3 -12 -4
-19 -1 -8 3 -5 6 6 6 11 1 17 -2 13 -5z"/>
<path d="M6055 3328 c-11 -6 -22 -14 -25 -18 -3 -4 -29 -14 -59 -24 -77 -25
-136 -53 -213 -103 -38 -23 -68 -40 -68 -36 0 4 -7 -2 -15 -13 -10 -13 -14
-15 -15 -5 0 11 -5 10 -20 -4 -20 -18 -21 -18 -47 6 -15 13 -21 16 -14 7 12
-16 11 -18 -8 -18 -21 0 -44 36 -34 53 6 11 -15 9 -22 -3 -16 -25 50 -100 75
-85 6 3 10 0 10 -7 0 -8 -8 -14 -17 -15 -10 -1 -27 -3 -37 -5 -13 -2 -26 8
-40 31 -11 19 -14 31 -7 27 9 -6 12 -3 9 10 -2 11 -13 20 -24 22 -15 2 -43
-21 -103 -84 -86 -91 -161 -186 -161 -204 0 -5 -5 -10 -11 -10 -5 0 -7 -5 -3
-12 4 -6 3 -8 -3 -5 -10 6 -107 -140 -115 -172 -2 -9 15 -18 56 -27 33 -8 60
-13 61 -12 1 2 22 35 47 73 75 119 252 324 267 310 2 -2 -28 -39 -66 -82 -38
-43 -91 -107 -118 -143 -27 -36 -52 -67 -56 -70 -3 -3 -16 -25 -28 -50 -12
-25 -16 -36 -9 -26 126 188 125 187 314 292 60 33 191 80 289 104 65 16 158
14 193 -3 15 -8 46 -17 70 -20 45 -5 82 -30 82 -53 0 -7 16 -26 36 -41 19 -15
42 -44 51 -63 20 -43 22 -183 3 -205 -7 -8 -10 -25 -6 -39 6 -23 -4 -60 -38
-138 -9 -21 -14 -38 -11 -38 8 0 66 127 95 207 12 35 26 60 31 57 5 -3 9 0 9
7 0 6 13 24 29 40 26 24 30 26 37 11 10 -22 11 -102 2 -95 -5 2 -8 -2 -8 -11
0 -8 -3 -21 -6 -29 -4 -12 0 -14 16 -10 25 7 45 39 30 48 -15 9 -11 67 5 89
20 26 19 35 -4 29 -11 -3 -21 2 -24 11 -5 13 -1 15 18 12 15 -3 25 0 25 7 0 7
3 23 6 37 6 21 4 23 -7 13 -18 -17 -29 -16 -29 3 0 8 5 12 10 9 20 -12 16 118
-7 200 -9 33 -16 75 -15 93 1 28 -2 32 -19 27 -22 -7 -22 -5 -9 30 9 24 8 25
-11 14 -17 -9 -24 -7 -39 8 -52 53 -78 66 -155 78 -27 4 -53 12 -57 18 -6 9
-16 7 -37 -5 -24 -13 -30 -14 -33 -3 -2 11 -7 11 -23 3z"/>
<path d="M2847 3108 c10 -21 21 -38 26 -38 13 0 7 14 -19 45 l-25 30 18 -37z"/>
<path d="M2475 3080 c-19 -8 -19 -9 2 -9 12 -1 25 4 28 9 7 12 -2 12 -30 0z"/>
<path d="M5181 2563 c-6 -20 -9 -38 -7 -40 5 -5 56 57 56 68 0 5 -9 9 -20 9
-14 0 -22 -10 -29 -37z"/>
<path d="M6367 2481 c-4 -17 -3 -21 5 -13 5 5 8 16 6 23 -3 8 -7 3 -11 -10z"/>
<path d="M6369 2453 c-19 -5 -42 -50 -34 -64 4 -5 0 -9 -8 -9 -16 0 -31 -29
-21 -39 3 -3 12 2 19 13 13 18 14 17 19 -5 16 -77 16 -109 1 -109 -8 0 -15 -9
-15 -20 0 -11 5 -20 11 -20 6 0 9 -17 8 -43 -3 -52 5 -67 37 -67 28 0 30 4 38
84 6 57 6 58 -16 54 -23 -4 -23 -3 -24 98 -1 97 0 103 20 107 20 4 20 4 -2 6
-13 0 -20 6 -17 11 3 6 5 9 3 9 -2 -1 -10 -3 -19 -6z"/>
<path d="M6273 2288 c-23 -30 -24 -41 -2 -21 12 12 20 25 17 28 -3 3 -10 0
-15 -7z"/>
<path d="M4577 2132 c-40 -39 -45 -52 -23 -52 8 0 28 -16 44 -34 25 -28 33
-32 42 -21 8 9 8 15 0 20 -8 5 -8 10 0 20 8 9 8 15 0 20 -5 3 -10 1 -10 -4 0
-16 -26 -13 -40 4 -10 12 -10 15 0 15 9 0 9 4 -1 17 -8 9 -9 14 -4 11 6 -3 18
5 28 18 26 35 8 28 -36 -14z"/>
<path d="M4644 2009 c-4 -8 -3 -9 5 -5 6 4 19 2 28 -6 14 -11 15 -11 11 2 -6
19 -34 25 -44 9z"/>
<path d="M4775 1940 c10 -11 20 -20 23 -20 3 0 -3 9 -13 20 -10 11 -20 20 -23
20 -3 0 3 -9 13 -20z"/>
<path d="M5980 1909 c-11 -19 -10 -20 9 -9 22 11 29 30 11 30 -5 0 -14 -9 -20
-21z"/>
<path d="M4793 1829 c-48 -166 -63 -225 -63 -246 0 -12 -5 -25 -11 -28 -6 -4
-8 -13 -5 -21 3 -7 1 -16 -3 -18 -21 -13 -21 -108 -1 -207 11 -55 22 -105 25
-109 3 -5 1 -11 -3 -14 -5 -3 -9 -33 -10 -68 -1 -73 17 -111 51 -106 33 5 44
49 26 100 -16 42 -39 63 -39 34 0 -8 -4 -17 -9 -21 -6 -3 -9 4 -8 15 1 11 9
23 19 26 10 3 18 10 18 15 0 6 -4 8 -8 5 -4 -2 -7 47 -7 111 0 63 -3 117 -7
120 -5 2 -8 13 -8 24 0 10 -4 19 -10 19 -19 0 -10 56 35 225 25 94 44 181 43
194 -2 15 -11 -2 -25 -50z m-63 -394 c10 -13 9 -15 -9 -15 -12 0 -21 6 -21 15
0 8 4 15 9 15 5 0 14 -7 21 -15z m30 -35 c0 -5 -2 -10 -4 -10 -3 0 -8 5 -11
10 -3 6 -1 10 4 10 6 0 11 -4 11 -10z"/>
<path d="M5915 1850 c-14 -16 -15 -20 -4 -20 16 0 39 19 39 32 0 14 -16 9 -35
-12z"/>
<path d="M5343 1673 c9 -2 23 -2 30 0 6 3 -1 5 -18 5 -16 0 -22 -2 -12 -5z"/>
<path d="M5268 1663 c6 -2 18 -2 25 0 6 3 1 5 -13 5 -14 0 -19 -2 -12 -5z"/>
<path d="M5156 1634 c-4 -10 -13 -14 -26 -11 -11 3 -18 1 -14 -4 3 -5 0 -9 -7
-9 -10 0 -10 -3 -1 -12 8 -8 15 -8 26 1 8 7 24 10 36 6 24 -7 28 16 6 34 -11
9 -15 8 -20 -5z"/>
<path d="M5567 1626 c-10 -8 -14 -17 -9 -20 5 -3 20 3 32 14 26 23 6 28 -23 6z"/>
<path d="M5196 1604 c-9 -23 -7 -29 5 -17 7 7 24 7 56 -3 26 -8 74 -13 107
-13 l61 2 -76 7 c-42 4 -91 15 -109 24 -40 19 -37 19 -44 0z"/>
<path d="M5493 1603 c-7 -2 -13 -9 -13 -14 0 -15 36 -10 50 6 10 12 9 15 -6
14 -11 0 -25 -3 -31 -6z"/>
<path d="M5438 1583 c6 -2 18 -2 25 0 6 3 1 5 -13 5 -14 0 -19 -2 -12 -5z"/>
</g>
</svg>
